M48
; DRILL file {KiCad 8.0.3} date 2024-08-29T16:23:38-0400
; FORMAT={-:-/ absolute / inch / decimal}
; #@! TF.CreationDate,2024-08-29T16:23:38-04:00
; #@! TF.GenerationSoftware,Kicad,Pcbnew,8.0.3
; #@! TF.FileFunction,Plated,1,2,PTH
FMAT,2
INCH
; #@! TA.AperFunction,Plated,PTH,ComponentDrill
T1C0.0394
%
G90
G05
T1
X3.4152Y-3.4681
X3.4152Y-3.5681
X3.4152Y-3.6681
X3.4152Y-3.7681
X3.4152Y-3.8681
X3.4152Y-3.9681
X3.4152Y-4.0681
X3.4152Y-4.1681
X3.4152Y-4.2681
X3.4152Y-4.3681
X3.4152Y-4.4681
X3.4152Y-4.5681
X3.4152Y-4.6681
X3.4152Y-4.7681
X3.4152Y-4.8681
X4.0152Y-3.4681
X4.0152Y-3.5681
X4.0152Y-3.6681
X4.0152Y-3.7681
X4.0152Y-3.8681
X4.0152Y-3.9681
X4.0152Y-4.0681
X4.0152Y-4.1681
X4.0152Y-4.2681
X4.0152Y-4.3681
X4.0152Y-4.4681
X4.0152Y-4.5681
X4.0152Y-4.6681
X4.0152Y-4.7681
X4.0152Y-4.8681
M30
