%TF.GenerationSoftware,KiCad,Pcbnew,8.0.3*%
%TF.CreationDate,2024-08-30T12:54:20-04:00*%
%TF.ProjectId,matrix,6d617472-6978-42e6-9b69-6361645f7063,rev?*%
%TF.SameCoordinates,Original*%
%TF.FileFunction,Soldermask,Top*%
%TF.FilePolarity,Negative*%
%FSLAX46Y46*%
G04 Gerber Fmt 4.6, Leading zero omitted, Abs format (unit mm)*
G04 Created by KiCad (PCBNEW 8.0.3) date 2024-08-30 12:54:20*
%MOMM*%
%LPD*%
G01*
G04 APERTURE LIST*
G04 Aperture macros list*
%AMRoundRect*
0 Rectangle with rounded corners*
0 $1 Rounding radius*
0 $2 $3 $4 $5 $6 $7 $8 $9 X,Y pos of 4 corners*
0 Add a 4 corners polygon primitive as box body*
4,1,4,$2,$3,$4,$5,$6,$7,$8,$9,$2,$3,0*
0 Add four circle primitives for the rounded corners*
1,1,$1+$1,$2,$3*
1,1,$1+$1,$4,$5*
1,1,$1+$1,$6,$7*
1,1,$1+$1,$8,$9*
0 Add four rect primitives between the rounded corners*
20,1,$1+$1,$2,$3,$4,$5,0*
20,1,$1+$1,$4,$5,$6,$7,0*
20,1,$1+$1,$6,$7,$8,$9,0*
20,1,$1+$1,$8,$9,$2,$3,0*%
G04 Aperture macros list end*
%ADD10RoundRect,0.147500X-0.147500X-0.172500X0.147500X-0.172500X0.147500X0.172500X-0.147500X0.172500X0*%
%ADD11RoundRect,0.075000X-0.125000X-0.075000X0.125000X-0.075000X0.125000X0.075000X-0.125000X0.075000X0*%
%ADD12R,1.600000X1.600000*%
%ADD13O,1.600000X1.600000*%
G04 APERTURE END LIST*
D10*
%TO.C,D10*%
X48500000Y-81000000D03*
X49470000Y-81000000D03*
%TD*%
%TO.C,D11*%
X48515000Y-77000000D03*
X49485000Y-77000000D03*
%TD*%
D11*
%TO.C,R8*%
X79250000Y-108500000D03*
X79750000Y-108500000D03*
%TD*%
%TO.C,R4*%
X79000000Y-119000000D03*
X79500000Y-119000000D03*
%TD*%
%TO.C,R5*%
X79250000Y-116500000D03*
X79750000Y-116500000D03*
%TD*%
%TO.C,R6*%
X79250000Y-113500000D03*
X79750000Y-113500000D03*
%TD*%
D10*
%TO.C,D8*%
X48515000Y-88500000D03*
X49485000Y-88500000D03*
%TD*%
D11*
%TO.C,R10*%
X79000000Y-103500000D03*
X79500000Y-103500000D03*
%TD*%
D10*
%TO.C,D1*%
X48515000Y-116500000D03*
X49485000Y-116500000D03*
%TD*%
D12*
%TO.C,A1*%
X86745000Y-88090000D03*
D13*
X86745000Y-90630000D03*
X86745000Y-93170000D03*
X86745000Y-95710000D03*
X86745000Y-98250000D03*
X86745000Y-100790000D03*
X86745000Y-103330000D03*
X86745000Y-105870000D03*
X86745000Y-108410000D03*
X86745000Y-110950000D03*
X86745000Y-113490000D03*
X86745000Y-116030000D03*
X86745000Y-118570000D03*
X86745000Y-121110000D03*
X86745000Y-123650000D03*
X101985000Y-123650000D03*
X101985000Y-121110000D03*
X101985000Y-118570000D03*
X101985000Y-116030000D03*
X101985000Y-113490000D03*
X101985000Y-110950000D03*
X101985000Y-108410000D03*
X101985000Y-105870000D03*
X101985000Y-103330000D03*
X101985000Y-100790000D03*
X101985000Y-98250000D03*
X101985000Y-95710000D03*
X101985000Y-93170000D03*
X101985000Y-90630000D03*
X101985000Y-88090000D03*
%TD*%
D10*
%TO.C,D5*%
X48530000Y-100500000D03*
X49500000Y-100500000D03*
%TD*%
D11*
%TO.C,R12*%
X78975000Y-98500000D03*
X79475000Y-98500000D03*
%TD*%
D10*
%TO.C,D2*%
X48530000Y-112500000D03*
X49500000Y-112500000D03*
%TD*%
%TO.C,D3*%
X48530000Y-108500000D03*
X49500000Y-108500000D03*
%TD*%
D11*
%TO.C,R2*%
X79000000Y-124000000D03*
X79500000Y-124000000D03*
%TD*%
D10*
%TO.C,D7*%
X48500000Y-92500000D03*
X49470000Y-92500000D03*
%TD*%
D11*
%TO.C,R9*%
X79000000Y-106000000D03*
X79500000Y-106000000D03*
%TD*%
%TO.C,R11*%
X79000000Y-101000000D03*
X79500000Y-101000000D03*
%TD*%
D10*
%TO.C,D6*%
X48515000Y-96500000D03*
X49485000Y-96500000D03*
%TD*%
D11*
%TO.C,R1*%
X56500000Y-119500000D03*
X57000000Y-119500000D03*
%TD*%
D10*
%TO.C,D12*%
X48530000Y-73500000D03*
X49500000Y-73500000D03*
%TD*%
D11*
%TO.C,R3*%
X79000000Y-122000000D03*
X79500000Y-122000000D03*
%TD*%
D10*
%TO.C,D9*%
X48515000Y-84500000D03*
X49485000Y-84500000D03*
%TD*%
D11*
%TO.C,R7*%
X78975000Y-111000000D03*
X79475000Y-111000000D03*
%TD*%
D10*
%TO.C,D4*%
X48500000Y-104500000D03*
X49470000Y-104500000D03*
%TD*%
M02*
