%TF.GenerationSoftware,KiCad,Pcbnew,8.0.3*%
%TF.CreationDate,2024-08-30T12:54:20-04:00*%
%TF.ProjectId,matrix,6d617472-6978-42e6-9b69-6361645f7063,rev?*%
%TF.SameCoordinates,Original*%
%TF.FileFunction,Legend,Top*%
%TF.FilePolarity,Positive*%
%FSLAX46Y46*%
G04 Gerber Fmt 4.6, Leading zero omitted, Abs format (unit mm)*
G04 Created by KiCad (PCBNEW 8.0.3) date 2024-08-30 12:54:20*
%MOMM*%
%LPD*%
G01*
G04 APERTURE LIST*
%ADD10C,0.100000*%
%ADD11C,0.150000*%
%ADD12C,0.120000*%
G04 APERTURE END LIST*
D10*
X84803884Y-134372419D02*
X84803884Y-133372419D01*
X84803884Y-133372419D02*
X85041979Y-133372419D01*
X85041979Y-133372419D02*
X85184836Y-133420038D01*
X85184836Y-133420038D02*
X85280074Y-133515276D01*
X85280074Y-133515276D02*
X85327693Y-133610514D01*
X85327693Y-133610514D02*
X85375312Y-133800990D01*
X85375312Y-133800990D02*
X85375312Y-133943847D01*
X85375312Y-133943847D02*
X85327693Y-134134323D01*
X85327693Y-134134323D02*
X85280074Y-134229561D01*
X85280074Y-134229561D02*
X85184836Y-134324800D01*
X85184836Y-134324800D02*
X85041979Y-134372419D01*
X85041979Y-134372419D02*
X84803884Y-134372419D01*
X85756265Y-134086704D02*
X86232455Y-134086704D01*
X85661027Y-134372419D02*
X85994360Y-133372419D01*
X85994360Y-133372419D02*
X86327693Y-134372419D01*
X86518170Y-133372419D02*
X86851503Y-134372419D01*
X86851503Y-134372419D02*
X87184836Y-133372419D01*
X87518170Y-134372419D02*
X87518170Y-133372419D01*
X87994360Y-134372419D02*
X87994360Y-133372419D01*
X87994360Y-133372419D02*
X88232455Y-133372419D01*
X88232455Y-133372419D02*
X88375312Y-133420038D01*
X88375312Y-133420038D02*
X88470550Y-133515276D01*
X88470550Y-133515276D02*
X88518169Y-133610514D01*
X88518169Y-133610514D02*
X88565788Y-133800990D01*
X88565788Y-133800990D02*
X88565788Y-133943847D01*
X88565788Y-133943847D02*
X88518169Y-134134323D01*
X88518169Y-134134323D02*
X88470550Y-134229561D01*
X88470550Y-134229561D02*
X88375312Y-134324800D01*
X88375312Y-134324800D02*
X88232455Y-134372419D01*
X88232455Y-134372419D02*
X87994360Y-134372419D01*
X90280074Y-133420038D02*
X90184836Y-133372419D01*
X90184836Y-133372419D02*
X90041979Y-133372419D01*
X90041979Y-133372419D02*
X89899122Y-133420038D01*
X89899122Y-133420038D02*
X89803884Y-133515276D01*
X89803884Y-133515276D02*
X89756265Y-133610514D01*
X89756265Y-133610514D02*
X89708646Y-133800990D01*
X89708646Y-133800990D02*
X89708646Y-133943847D01*
X89708646Y-133943847D02*
X89756265Y-134134323D01*
X89756265Y-134134323D02*
X89803884Y-134229561D01*
X89803884Y-134229561D02*
X89899122Y-134324800D01*
X89899122Y-134324800D02*
X90041979Y-134372419D01*
X90041979Y-134372419D02*
X90137217Y-134372419D01*
X90137217Y-134372419D02*
X90280074Y-134324800D01*
X90280074Y-134324800D02*
X90327693Y-134277180D01*
X90327693Y-134277180D02*
X90327693Y-133943847D01*
X90327693Y-133943847D02*
X90137217Y-133943847D01*
X90946741Y-133372419D02*
X91137217Y-133372419D01*
X91137217Y-133372419D02*
X91232455Y-133420038D01*
X91232455Y-133420038D02*
X91327693Y-133515276D01*
X91327693Y-133515276D02*
X91375312Y-133705752D01*
X91375312Y-133705752D02*
X91375312Y-134039085D01*
X91375312Y-134039085D02*
X91327693Y-134229561D01*
X91327693Y-134229561D02*
X91232455Y-134324800D01*
X91232455Y-134324800D02*
X91137217Y-134372419D01*
X91137217Y-134372419D02*
X90946741Y-134372419D01*
X90946741Y-134372419D02*
X90851503Y-134324800D01*
X90851503Y-134324800D02*
X90756265Y-134229561D01*
X90756265Y-134229561D02*
X90708646Y-134039085D01*
X90708646Y-134039085D02*
X90708646Y-133705752D01*
X90708646Y-133705752D02*
X90756265Y-133515276D01*
X90756265Y-133515276D02*
X90851503Y-133420038D01*
X90851503Y-133420038D02*
X90946741Y-133372419D01*
X92280074Y-134372419D02*
X91803884Y-134372419D01*
X91803884Y-134372419D02*
X91803884Y-133372419D01*
X92613408Y-134372419D02*
X92613408Y-133372419D01*
X93041979Y-134086704D02*
X93518169Y-134086704D01*
X92946741Y-134372419D02*
X93280074Y-133372419D01*
X93280074Y-133372419D02*
X93613407Y-134372419D01*
X93803884Y-133372419D02*
X94375312Y-133372419D01*
X94089598Y-134372419D02*
X94089598Y-133372419D01*
X94708646Y-134372419D02*
X94708646Y-133372419D01*
X94708646Y-133848609D02*
X95280074Y-133848609D01*
X95280074Y-134372419D02*
X95280074Y-133372419D01*
X96994360Y-134372419D02*
X96518170Y-134372419D01*
X96518170Y-134372419D02*
X96518170Y-133372419D01*
X97327694Y-133848609D02*
X97661027Y-133848609D01*
X97803884Y-134372419D02*
X97327694Y-134372419D01*
X97327694Y-134372419D02*
X97327694Y-133372419D01*
X97327694Y-133372419D02*
X97803884Y-133372419D01*
X98232456Y-134372419D02*
X98232456Y-133372419D01*
X98232456Y-133372419D02*
X98470551Y-133372419D01*
X98470551Y-133372419D02*
X98613408Y-133420038D01*
X98613408Y-133420038D02*
X98708646Y-133515276D01*
X98708646Y-133515276D02*
X98756265Y-133610514D01*
X98756265Y-133610514D02*
X98803884Y-133800990D01*
X98803884Y-133800990D02*
X98803884Y-133943847D01*
X98803884Y-133943847D02*
X98756265Y-134134323D01*
X98756265Y-134134323D02*
X98708646Y-134229561D01*
X98708646Y-134229561D02*
X98613408Y-134324800D01*
X98613408Y-134324800D02*
X98470551Y-134372419D01*
X98470551Y-134372419D02*
X98232456Y-134372419D01*
X99994361Y-134372419D02*
X99994361Y-133372419D01*
X99994361Y-133372419D02*
X100327694Y-134086704D01*
X100327694Y-134086704D02*
X100661027Y-133372419D01*
X100661027Y-133372419D02*
X100661027Y-134372419D01*
X101089599Y-134086704D02*
X101565789Y-134086704D01*
X100994361Y-134372419D02*
X101327694Y-133372419D01*
X101327694Y-133372419D02*
X101661027Y-134372419D01*
X101851504Y-133372419D02*
X102422932Y-133372419D01*
X102137218Y-134372419D02*
X102137218Y-133372419D01*
X103327694Y-134372419D02*
X102994361Y-133896228D01*
X102756266Y-134372419D02*
X102756266Y-133372419D01*
X102756266Y-133372419D02*
X103137218Y-133372419D01*
X103137218Y-133372419D02*
X103232456Y-133420038D01*
X103232456Y-133420038D02*
X103280075Y-133467657D01*
X103280075Y-133467657D02*
X103327694Y-133562895D01*
X103327694Y-133562895D02*
X103327694Y-133705752D01*
X103327694Y-133705752D02*
X103280075Y-133800990D01*
X103280075Y-133800990D02*
X103232456Y-133848609D01*
X103232456Y-133848609D02*
X103137218Y-133896228D01*
X103137218Y-133896228D02*
X102756266Y-133896228D01*
X103756266Y-134372419D02*
X103756266Y-133372419D01*
X104137218Y-133372419D02*
X104803884Y-134372419D01*
X104803884Y-133372419D02*
X104137218Y-134372419D01*
D11*
G36*
X98163508Y-81378410D02*
G01*
X98213524Y-81384215D01*
X98273018Y-81396912D01*
X98329149Y-81415656D01*
X98381916Y-81440447D01*
X98431320Y-81471284D01*
X98468422Y-81500307D01*
X98506629Y-81537549D01*
X98538361Y-81577987D01*
X98563616Y-81621622D01*
X98582396Y-81668452D01*
X98594700Y-81718479D01*
X98600528Y-81771702D01*
X98601046Y-81793886D01*
X98598715Y-81842685D01*
X98589762Y-81895670D01*
X98574094Y-81942576D01*
X98547328Y-81989617D01*
X98511423Y-82028382D01*
X98505547Y-82033244D01*
X98463886Y-82059804D01*
X98414947Y-82076205D01*
X98375854Y-82079895D01*
X98325640Y-82075759D01*
X98292323Y-82065240D01*
X98253319Y-82034541D01*
X98232972Y-82009309D01*
X98190123Y-82035041D01*
X98143637Y-82054498D01*
X98124040Y-82060844D01*
X98075451Y-82072453D01*
X98026038Y-82078704D01*
X97992637Y-82079895D01*
X97942582Y-82075792D01*
X97894959Y-82061803D01*
X97855129Y-82037885D01*
X97822311Y-82001106D01*
X97802047Y-81952162D01*
X97797487Y-81909413D01*
X97799188Y-81892805D01*
X97890788Y-81892805D01*
X97898115Y-81943180D01*
X97924005Y-81982930D01*
X97968320Y-82009802D01*
X98018527Y-82017369D01*
X98069933Y-82013273D01*
X98120661Y-81999114D01*
X98164663Y-81974843D01*
X98176552Y-81965589D01*
X98211733Y-81927831D01*
X98233458Y-81882099D01*
X98238346Y-81844689D01*
X98232138Y-81795117D01*
X98209548Y-81750842D01*
X98200732Y-81741374D01*
X98158400Y-81715443D01*
X98109904Y-81705471D01*
X98092777Y-81704738D01*
X98042811Y-81710250D01*
X97993833Y-81728837D01*
X97960886Y-81751388D01*
X97925389Y-81788812D01*
X97902248Y-81832389D01*
X97891463Y-81882120D01*
X97890788Y-81892805D01*
X97799188Y-81892805D01*
X97802588Y-81859598D01*
X97817889Y-81812642D01*
X97843392Y-81768545D01*
X97861967Y-81745282D01*
X97900203Y-81709456D01*
X97941722Y-81682540D01*
X97968702Y-81669567D01*
X98017806Y-81652897D01*
X98068765Y-81643921D01*
X98103768Y-81642212D01*
X98156282Y-81647525D01*
X98204738Y-81663464D01*
X98249138Y-81690029D01*
X98272051Y-81709378D01*
X98285729Y-81657843D01*
X98380006Y-81657843D01*
X98300872Y-81986350D01*
X98299651Y-82001493D01*
X98337647Y-82032877D01*
X98342882Y-82033000D01*
X98392925Y-82022258D01*
X98435694Y-81999050D01*
X98469941Y-81963108D01*
X98487718Y-81926510D01*
X98500908Y-81879153D01*
X98506711Y-81826840D01*
X98507013Y-81810983D01*
X98503630Y-81761335D01*
X98491131Y-81707102D01*
X98469422Y-81656843D01*
X98438504Y-81610558D01*
X98410781Y-81579930D01*
X98372753Y-81546841D01*
X98331208Y-81518466D01*
X98286148Y-81494806D01*
X98259595Y-81483698D01*
X98210966Y-81468371D01*
X98161859Y-81458720D01*
X98112276Y-81454747D01*
X98102302Y-81454633D01*
X98050150Y-81457602D01*
X97998839Y-81466508D01*
X97948369Y-81481351D01*
X97898741Y-81502131D01*
X97870760Y-81516671D01*
X97829083Y-81542199D01*
X97785778Y-81575390D01*
X97748200Y-81612250D01*
X97716348Y-81652780D01*
X97697103Y-81683977D01*
X97675497Y-81731193D01*
X97660962Y-81781616D01*
X97653498Y-81835246D01*
X97652407Y-81866427D01*
X97655245Y-81918471D01*
X97663761Y-81967749D01*
X97681472Y-82023230D01*
X97707358Y-82074728D01*
X97741418Y-82122240D01*
X97768667Y-82151702D01*
X97808065Y-82186001D01*
X97850851Y-82214099D01*
X97897023Y-82235995D01*
X97906664Y-82239630D01*
X97957807Y-82254313D01*
X98008282Y-82262878D01*
X98062968Y-82267038D01*
X98088625Y-82267473D01*
X98140584Y-82265042D01*
X98191175Y-82258432D01*
X98211235Y-82254773D01*
X98260353Y-82243365D01*
X98307913Y-82227498D01*
X98318946Y-82222777D01*
X98335310Y-82193956D01*
X98334577Y-82182965D01*
X98348255Y-82178813D01*
X98393684Y-82331465D01*
X98377808Y-82335617D01*
X98342161Y-82301700D01*
X98340928Y-82301667D01*
X98291768Y-82313402D01*
X98252267Y-82324382D01*
X98201558Y-82335588D01*
X98151434Y-82342124D01*
X98097059Y-82345299D01*
X98071528Y-82345631D01*
X98019058Y-82343830D01*
X97969114Y-82338426D01*
X97910237Y-82326605D01*
X97855307Y-82309155D01*
X97804325Y-82286076D01*
X97757290Y-82257368D01*
X97722505Y-82230348D01*
X97683060Y-82191575D01*
X97648499Y-82147794D01*
X97622266Y-82105379D01*
X97599773Y-82059130D01*
X97594033Y-82045212D01*
X97577149Y-81994500D01*
X97565791Y-81943478D01*
X97559959Y-81892146D01*
X97559106Y-81863496D01*
X97561931Y-81810625D01*
X97570406Y-81759540D01*
X97584531Y-81710241D01*
X97604306Y-81662728D01*
X97629732Y-81617001D01*
X97639462Y-81602156D01*
X97674252Y-81557173D01*
X97714143Y-81516930D01*
X97759134Y-81481427D01*
X97800523Y-81455462D01*
X97845454Y-81432789D01*
X97883949Y-81417020D01*
X97932146Y-81401222D01*
X97981208Y-81389304D01*
X98031135Y-81381266D01*
X98081927Y-81377109D01*
X98111339Y-81376475D01*
X98163508Y-81378410D01*
G37*
G36*
X98785205Y-82255017D02*
G01*
X98785205Y-81639036D01*
X98776168Y-81598248D01*
X98741242Y-81579685D01*
X98741242Y-81564054D01*
X98927355Y-81564054D01*
X98927355Y-81579685D01*
X98892184Y-81598248D01*
X98883391Y-81639036D01*
X98883391Y-82255017D01*
X98892184Y-82295561D01*
X98927355Y-82314368D01*
X98927355Y-82330000D01*
X98741242Y-82330000D01*
X98741242Y-82314368D01*
X98776168Y-82295561D01*
X98785205Y-82255017D01*
G37*
G36*
X99446127Y-81642212D02*
G01*
X99446127Y-82255261D01*
X99454675Y-82295561D01*
X99490090Y-82314368D01*
X99490090Y-82330000D01*
X99303733Y-82330000D01*
X99303733Y-82314368D01*
X99338660Y-82295561D01*
X99347697Y-82255261D01*
X99347697Y-81642212D01*
X99097103Y-81642212D01*
X99056559Y-81651737D01*
X99037997Y-81689106D01*
X99019434Y-81689106D01*
X99019434Y-81517159D01*
X99037997Y-81517159D01*
X99056559Y-81554528D01*
X99097103Y-81564054D01*
X99696720Y-81564054D01*
X99737264Y-81554528D01*
X99755826Y-81517159D01*
X99774389Y-81517159D01*
X99774389Y-81689106D01*
X99755826Y-81689106D01*
X99736775Y-81651737D01*
X99696720Y-81642212D01*
X99446127Y-81642212D01*
G37*
G36*
X100596266Y-81603621D02*
G01*
X100520795Y-81752854D01*
X100504187Y-81744549D01*
X100507606Y-81717194D01*
X100470897Y-81681675D01*
X100462909Y-81677383D01*
X100412947Y-81655157D01*
X100364996Y-81640918D01*
X100313096Y-81631541D01*
X100257245Y-81627027D01*
X100232100Y-81626580D01*
X100179573Y-81629099D01*
X100131167Y-81636655D01*
X100081637Y-81651177D01*
X100046720Y-81666880D01*
X100006534Y-81695674D01*
X99977958Y-81738539D01*
X99970516Y-81781186D01*
X99982144Y-81828681D01*
X99989567Y-81840537D01*
X100027766Y-81872361D01*
X100041346Y-81877906D01*
X100090467Y-81889569D01*
X100111200Y-81892072D01*
X100160875Y-81895345D01*
X100210287Y-81897745D01*
X100265691Y-81900072D01*
X100273377Y-81900376D01*
X100327649Y-81902783D01*
X100378616Y-81906589D01*
X100430181Y-81913321D01*
X100479579Y-81925778D01*
X100521284Y-81944096D01*
X100561409Y-81975789D01*
X100585031Y-82009309D01*
X100603326Y-82056928D01*
X100608478Y-82102609D01*
X100603029Y-82152801D01*
X100583870Y-82202844D01*
X100550916Y-82246087D01*
X100521284Y-82271137D01*
X100472360Y-82300163D01*
X100425179Y-82319369D01*
X100373155Y-82333337D01*
X100316289Y-82342066D01*
X100265201Y-82345340D01*
X100243824Y-82345631D01*
X100189713Y-82343127D01*
X100139587Y-82336590D01*
X100088107Y-82325996D01*
X100064794Y-82319986D01*
X100013218Y-82304053D01*
X99963729Y-82285107D01*
X99916326Y-82263146D01*
X99890893Y-82249644D01*
X99874284Y-82242805D01*
X99843510Y-82266741D01*
X99827634Y-82256482D01*
X99914829Y-82110181D01*
X99931437Y-82119951D01*
X99928506Y-82130942D01*
X99925087Y-82148771D01*
X99961299Y-82185494D01*
X99995184Y-82204947D01*
X100039824Y-82226196D01*
X100092684Y-82245430D01*
X100146386Y-82258681D01*
X100200929Y-82265947D01*
X100240404Y-82267473D01*
X100289291Y-82265709D01*
X100340582Y-82259370D01*
X100392445Y-82246728D01*
X100433356Y-82230593D01*
X100473847Y-82203230D01*
X100492463Y-82182233D01*
X100512706Y-82137308D01*
X100514445Y-82118974D01*
X100501230Y-82071736D01*
X100495882Y-82064019D01*
X100456212Y-82033126D01*
X100447034Y-82029581D01*
X100399121Y-82018740D01*
X100384263Y-82016880D01*
X100334193Y-82013155D01*
X100281919Y-82010807D01*
X100253349Y-82009797D01*
X100200715Y-82007233D01*
X100151135Y-82004056D01*
X100100898Y-81999339D01*
X100091172Y-81998073D01*
X100041046Y-81988119D01*
X99999337Y-81974870D01*
X99955318Y-81951963D01*
X99917183Y-81916421D01*
X99910676Y-81907948D01*
X99887636Y-81863001D01*
X99877498Y-81811510D01*
X99876971Y-81795596D01*
X99883245Y-81741283D01*
X99902067Y-81693136D01*
X99933437Y-81651157D01*
X99971179Y-81619484D01*
X99977355Y-81615345D01*
X100024792Y-81589269D01*
X100077559Y-81569597D01*
X100127030Y-81557833D01*
X100180416Y-81550775D01*
X100237718Y-81548422D01*
X100291816Y-81550646D01*
X100346035Y-81557318D01*
X100400375Y-81568438D01*
X100454834Y-81584006D01*
X100509414Y-81604021D01*
X100527634Y-81611681D01*
X100553035Y-81620474D01*
X100579169Y-81595561D01*
X100596266Y-81603621D01*
G37*
G36*
X100873482Y-82034466D02*
G01*
X100873482Y-82255017D01*
X100882274Y-82295561D01*
X100917445Y-82314368D01*
X100917445Y-82330000D01*
X100731332Y-82330000D01*
X100731332Y-82314368D01*
X100766259Y-82295561D01*
X100775296Y-82255017D01*
X100775296Y-81639036D01*
X100766259Y-81598248D01*
X100731332Y-81579685D01*
X100731332Y-81564054D01*
X100917445Y-81564054D01*
X100917445Y-81579685D01*
X100882274Y-81598004D01*
X100873482Y-81637571D01*
X100873482Y-81935547D01*
X101241556Y-81656133D01*
X101279872Y-81625079D01*
X101288206Y-81617299D01*
X101297243Y-81598981D01*
X101272575Y-81579685D01*
X101272575Y-81564054D01*
X101488974Y-81564054D01*
X101488974Y-81579685D01*
X101451116Y-81590188D01*
X101418876Y-81612170D01*
X101111863Y-81852505D01*
X101451849Y-82286036D01*
X101475540Y-82308506D01*
X101504605Y-82314368D01*
X101504605Y-82330000D01*
X101299930Y-82330000D01*
X101299930Y-82314368D01*
X101330216Y-82295806D01*
X101306280Y-82255750D01*
X101039078Y-81909902D01*
X100873482Y-82034466D01*
G37*
G36*
X102046580Y-82330000D02*
G01*
X101719539Y-81682267D01*
X101719539Y-82255017D01*
X101728332Y-82295561D01*
X101763503Y-82314368D01*
X101763503Y-82330000D01*
X101593998Y-82330000D01*
X101593998Y-82314368D01*
X101628925Y-82295561D01*
X101637962Y-82255017D01*
X101637962Y-81639036D01*
X101628925Y-81598248D01*
X101593998Y-81579685D01*
X101593998Y-81564054D01*
X101827494Y-81564054D01*
X101827494Y-81579685D01*
X101793056Y-81609972D01*
X101810153Y-81653447D01*
X102053419Y-82135338D01*
X102297906Y-81653447D01*
X102314515Y-81609972D01*
X102280076Y-81579685D01*
X102280076Y-81564054D01*
X102515771Y-81564054D01*
X102515771Y-81579685D01*
X102480600Y-81598736D01*
X102471807Y-81639036D01*
X102471807Y-82255017D01*
X102480600Y-82295561D01*
X102515771Y-82314368D01*
X102515771Y-82330000D01*
X102329658Y-82330000D01*
X102329658Y-82314368D01*
X102364584Y-82295561D01*
X102373621Y-82255017D01*
X102373621Y-81682267D01*
X102046580Y-82330000D01*
G37*
G36*
X102817655Y-81970474D02*
G01*
X102817655Y-82251842D01*
X103292951Y-82251842D01*
X103333740Y-82242561D01*
X103352058Y-82204947D01*
X103371353Y-82204947D01*
X103371353Y-82376894D01*
X103352058Y-82376894D01*
X103334228Y-82339525D01*
X103293684Y-82330000D01*
X102675505Y-82330000D01*
X102675505Y-82314368D01*
X102710921Y-82295561D01*
X102719469Y-82255017D01*
X102719469Y-81639036D01*
X102710432Y-81598248D01*
X102675505Y-81579685D01*
X102675505Y-81564054D01*
X103288799Y-81564054D01*
X103329344Y-81554528D01*
X103347906Y-81517159D01*
X103366468Y-81517159D01*
X103366468Y-81689106D01*
X103347906Y-81689106D01*
X103329344Y-81651737D01*
X103288799Y-81642212D01*
X102817655Y-81642212D01*
X102817655Y-81892316D01*
X103117829Y-81892316D01*
X103158374Y-81882791D01*
X103176936Y-81845422D01*
X103195498Y-81845422D01*
X103195498Y-82017369D01*
X103176936Y-82017369D01*
X103157885Y-81980000D01*
X103117829Y-81970474D01*
X102817655Y-81970474D01*
G37*
X47770714Y-80284819D02*
X47770714Y-79284819D01*
X47770714Y-79284819D02*
X48008809Y-79284819D01*
X48008809Y-79284819D02*
X48151666Y-79332438D01*
X48151666Y-79332438D02*
X48246904Y-79427676D01*
X48246904Y-79427676D02*
X48294523Y-79522914D01*
X48294523Y-79522914D02*
X48342142Y-79713390D01*
X48342142Y-79713390D02*
X48342142Y-79856247D01*
X48342142Y-79856247D02*
X48294523Y-80046723D01*
X48294523Y-80046723D02*
X48246904Y-80141961D01*
X48246904Y-80141961D02*
X48151666Y-80237200D01*
X48151666Y-80237200D02*
X48008809Y-80284819D01*
X48008809Y-80284819D02*
X47770714Y-80284819D01*
X49294523Y-80284819D02*
X48723095Y-80284819D01*
X49008809Y-80284819D02*
X49008809Y-79284819D01*
X49008809Y-79284819D02*
X48913571Y-79427676D01*
X48913571Y-79427676D02*
X48818333Y-79522914D01*
X48818333Y-79522914D02*
X48723095Y-79570533D01*
X49913571Y-79284819D02*
X50008809Y-79284819D01*
X50008809Y-79284819D02*
X50104047Y-79332438D01*
X50104047Y-79332438D02*
X50151666Y-79380057D01*
X50151666Y-79380057D02*
X50199285Y-79475295D01*
X50199285Y-79475295D02*
X50246904Y-79665771D01*
X50246904Y-79665771D02*
X50246904Y-79903866D01*
X50246904Y-79903866D02*
X50199285Y-80094342D01*
X50199285Y-80094342D02*
X50151666Y-80189580D01*
X50151666Y-80189580D02*
X50104047Y-80237200D01*
X50104047Y-80237200D02*
X50008809Y-80284819D01*
X50008809Y-80284819D02*
X49913571Y-80284819D01*
X49913571Y-80284819D02*
X49818333Y-80237200D01*
X49818333Y-80237200D02*
X49770714Y-80189580D01*
X49770714Y-80189580D02*
X49723095Y-80094342D01*
X49723095Y-80094342D02*
X49675476Y-79903866D01*
X49675476Y-79903866D02*
X49675476Y-79665771D01*
X49675476Y-79665771D02*
X49723095Y-79475295D01*
X49723095Y-79475295D02*
X49770714Y-79380057D01*
X49770714Y-79380057D02*
X49818333Y-79332438D01*
X49818333Y-79332438D02*
X49913571Y-79284819D01*
X47785714Y-76284819D02*
X47785714Y-75284819D01*
X47785714Y-75284819D02*
X48023809Y-75284819D01*
X48023809Y-75284819D02*
X48166666Y-75332438D01*
X48166666Y-75332438D02*
X48261904Y-75427676D01*
X48261904Y-75427676D02*
X48309523Y-75522914D01*
X48309523Y-75522914D02*
X48357142Y-75713390D01*
X48357142Y-75713390D02*
X48357142Y-75856247D01*
X48357142Y-75856247D02*
X48309523Y-76046723D01*
X48309523Y-76046723D02*
X48261904Y-76141961D01*
X48261904Y-76141961D02*
X48166666Y-76237200D01*
X48166666Y-76237200D02*
X48023809Y-76284819D01*
X48023809Y-76284819D02*
X47785714Y-76284819D01*
X49309523Y-76284819D02*
X48738095Y-76284819D01*
X49023809Y-76284819D02*
X49023809Y-75284819D01*
X49023809Y-75284819D02*
X48928571Y-75427676D01*
X48928571Y-75427676D02*
X48833333Y-75522914D01*
X48833333Y-75522914D02*
X48738095Y-75570533D01*
X50261904Y-76284819D02*
X49690476Y-76284819D01*
X49976190Y-76284819D02*
X49976190Y-75284819D01*
X49976190Y-75284819D02*
X49880952Y-75427676D01*
X49880952Y-75427676D02*
X49785714Y-75522914D01*
X49785714Y-75522914D02*
X49690476Y-75570533D01*
X79333333Y-107954819D02*
X79000000Y-107478628D01*
X78761905Y-107954819D02*
X78761905Y-106954819D01*
X78761905Y-106954819D02*
X79142857Y-106954819D01*
X79142857Y-106954819D02*
X79238095Y-107002438D01*
X79238095Y-107002438D02*
X79285714Y-107050057D01*
X79285714Y-107050057D02*
X79333333Y-107145295D01*
X79333333Y-107145295D02*
X79333333Y-107288152D01*
X79333333Y-107288152D02*
X79285714Y-107383390D01*
X79285714Y-107383390D02*
X79238095Y-107431009D01*
X79238095Y-107431009D02*
X79142857Y-107478628D01*
X79142857Y-107478628D02*
X78761905Y-107478628D01*
X79904762Y-107383390D02*
X79809524Y-107335771D01*
X79809524Y-107335771D02*
X79761905Y-107288152D01*
X79761905Y-107288152D02*
X79714286Y-107192914D01*
X79714286Y-107192914D02*
X79714286Y-107145295D01*
X79714286Y-107145295D02*
X79761905Y-107050057D01*
X79761905Y-107050057D02*
X79809524Y-107002438D01*
X79809524Y-107002438D02*
X79904762Y-106954819D01*
X79904762Y-106954819D02*
X80095238Y-106954819D01*
X80095238Y-106954819D02*
X80190476Y-107002438D01*
X80190476Y-107002438D02*
X80238095Y-107050057D01*
X80238095Y-107050057D02*
X80285714Y-107145295D01*
X80285714Y-107145295D02*
X80285714Y-107192914D01*
X80285714Y-107192914D02*
X80238095Y-107288152D01*
X80238095Y-107288152D02*
X80190476Y-107335771D01*
X80190476Y-107335771D02*
X80095238Y-107383390D01*
X80095238Y-107383390D02*
X79904762Y-107383390D01*
X79904762Y-107383390D02*
X79809524Y-107431009D01*
X79809524Y-107431009D02*
X79761905Y-107478628D01*
X79761905Y-107478628D02*
X79714286Y-107573866D01*
X79714286Y-107573866D02*
X79714286Y-107764342D01*
X79714286Y-107764342D02*
X79761905Y-107859580D01*
X79761905Y-107859580D02*
X79809524Y-107907200D01*
X79809524Y-107907200D02*
X79904762Y-107954819D01*
X79904762Y-107954819D02*
X80095238Y-107954819D01*
X80095238Y-107954819D02*
X80190476Y-107907200D01*
X80190476Y-107907200D02*
X80238095Y-107859580D01*
X80238095Y-107859580D02*
X80285714Y-107764342D01*
X80285714Y-107764342D02*
X80285714Y-107573866D01*
X80285714Y-107573866D02*
X80238095Y-107478628D01*
X80238095Y-107478628D02*
X80190476Y-107431009D01*
X80190476Y-107431009D02*
X80095238Y-107383390D01*
X79083333Y-118454819D02*
X78750000Y-117978628D01*
X78511905Y-118454819D02*
X78511905Y-117454819D01*
X78511905Y-117454819D02*
X78892857Y-117454819D01*
X78892857Y-117454819D02*
X78988095Y-117502438D01*
X78988095Y-117502438D02*
X79035714Y-117550057D01*
X79035714Y-117550057D02*
X79083333Y-117645295D01*
X79083333Y-117645295D02*
X79083333Y-117788152D01*
X79083333Y-117788152D02*
X79035714Y-117883390D01*
X79035714Y-117883390D02*
X78988095Y-117931009D01*
X78988095Y-117931009D02*
X78892857Y-117978628D01*
X78892857Y-117978628D02*
X78511905Y-117978628D01*
X79940476Y-117788152D02*
X79940476Y-118454819D01*
X79702381Y-117407200D02*
X79464286Y-118121485D01*
X79464286Y-118121485D02*
X80083333Y-118121485D01*
X79333333Y-115954819D02*
X79000000Y-115478628D01*
X78761905Y-115954819D02*
X78761905Y-114954819D01*
X78761905Y-114954819D02*
X79142857Y-114954819D01*
X79142857Y-114954819D02*
X79238095Y-115002438D01*
X79238095Y-115002438D02*
X79285714Y-115050057D01*
X79285714Y-115050057D02*
X79333333Y-115145295D01*
X79333333Y-115145295D02*
X79333333Y-115288152D01*
X79333333Y-115288152D02*
X79285714Y-115383390D01*
X79285714Y-115383390D02*
X79238095Y-115431009D01*
X79238095Y-115431009D02*
X79142857Y-115478628D01*
X79142857Y-115478628D02*
X78761905Y-115478628D01*
X80238095Y-114954819D02*
X79761905Y-114954819D01*
X79761905Y-114954819D02*
X79714286Y-115431009D01*
X79714286Y-115431009D02*
X79761905Y-115383390D01*
X79761905Y-115383390D02*
X79857143Y-115335771D01*
X79857143Y-115335771D02*
X80095238Y-115335771D01*
X80095238Y-115335771D02*
X80190476Y-115383390D01*
X80190476Y-115383390D02*
X80238095Y-115431009D01*
X80238095Y-115431009D02*
X80285714Y-115526247D01*
X80285714Y-115526247D02*
X80285714Y-115764342D01*
X80285714Y-115764342D02*
X80238095Y-115859580D01*
X80238095Y-115859580D02*
X80190476Y-115907200D01*
X80190476Y-115907200D02*
X80095238Y-115954819D01*
X80095238Y-115954819D02*
X79857143Y-115954819D01*
X79857143Y-115954819D02*
X79761905Y-115907200D01*
X79761905Y-115907200D02*
X79714286Y-115859580D01*
X79333333Y-112954819D02*
X79000000Y-112478628D01*
X78761905Y-112954819D02*
X78761905Y-111954819D01*
X78761905Y-111954819D02*
X79142857Y-111954819D01*
X79142857Y-111954819D02*
X79238095Y-112002438D01*
X79238095Y-112002438D02*
X79285714Y-112050057D01*
X79285714Y-112050057D02*
X79333333Y-112145295D01*
X79333333Y-112145295D02*
X79333333Y-112288152D01*
X79333333Y-112288152D02*
X79285714Y-112383390D01*
X79285714Y-112383390D02*
X79238095Y-112431009D01*
X79238095Y-112431009D02*
X79142857Y-112478628D01*
X79142857Y-112478628D02*
X78761905Y-112478628D01*
X80190476Y-111954819D02*
X80000000Y-111954819D01*
X80000000Y-111954819D02*
X79904762Y-112002438D01*
X79904762Y-112002438D02*
X79857143Y-112050057D01*
X79857143Y-112050057D02*
X79761905Y-112192914D01*
X79761905Y-112192914D02*
X79714286Y-112383390D01*
X79714286Y-112383390D02*
X79714286Y-112764342D01*
X79714286Y-112764342D02*
X79761905Y-112859580D01*
X79761905Y-112859580D02*
X79809524Y-112907200D01*
X79809524Y-112907200D02*
X79904762Y-112954819D01*
X79904762Y-112954819D02*
X80095238Y-112954819D01*
X80095238Y-112954819D02*
X80190476Y-112907200D01*
X80190476Y-112907200D02*
X80238095Y-112859580D01*
X80238095Y-112859580D02*
X80285714Y-112764342D01*
X80285714Y-112764342D02*
X80285714Y-112526247D01*
X80285714Y-112526247D02*
X80238095Y-112431009D01*
X80238095Y-112431009D02*
X80190476Y-112383390D01*
X80190476Y-112383390D02*
X80095238Y-112335771D01*
X80095238Y-112335771D02*
X79904762Y-112335771D01*
X79904762Y-112335771D02*
X79809524Y-112383390D01*
X79809524Y-112383390D02*
X79761905Y-112431009D01*
X79761905Y-112431009D02*
X79714286Y-112526247D01*
X48261905Y-87784819D02*
X48261905Y-86784819D01*
X48261905Y-86784819D02*
X48500000Y-86784819D01*
X48500000Y-86784819D02*
X48642857Y-86832438D01*
X48642857Y-86832438D02*
X48738095Y-86927676D01*
X48738095Y-86927676D02*
X48785714Y-87022914D01*
X48785714Y-87022914D02*
X48833333Y-87213390D01*
X48833333Y-87213390D02*
X48833333Y-87356247D01*
X48833333Y-87356247D02*
X48785714Y-87546723D01*
X48785714Y-87546723D02*
X48738095Y-87641961D01*
X48738095Y-87641961D02*
X48642857Y-87737200D01*
X48642857Y-87737200D02*
X48500000Y-87784819D01*
X48500000Y-87784819D02*
X48261905Y-87784819D01*
X49404762Y-87213390D02*
X49309524Y-87165771D01*
X49309524Y-87165771D02*
X49261905Y-87118152D01*
X49261905Y-87118152D02*
X49214286Y-87022914D01*
X49214286Y-87022914D02*
X49214286Y-86975295D01*
X49214286Y-86975295D02*
X49261905Y-86880057D01*
X49261905Y-86880057D02*
X49309524Y-86832438D01*
X49309524Y-86832438D02*
X49404762Y-86784819D01*
X49404762Y-86784819D02*
X49595238Y-86784819D01*
X49595238Y-86784819D02*
X49690476Y-86832438D01*
X49690476Y-86832438D02*
X49738095Y-86880057D01*
X49738095Y-86880057D02*
X49785714Y-86975295D01*
X49785714Y-86975295D02*
X49785714Y-87022914D01*
X49785714Y-87022914D02*
X49738095Y-87118152D01*
X49738095Y-87118152D02*
X49690476Y-87165771D01*
X49690476Y-87165771D02*
X49595238Y-87213390D01*
X49595238Y-87213390D02*
X49404762Y-87213390D01*
X49404762Y-87213390D02*
X49309524Y-87261009D01*
X49309524Y-87261009D02*
X49261905Y-87308628D01*
X49261905Y-87308628D02*
X49214286Y-87403866D01*
X49214286Y-87403866D02*
X49214286Y-87594342D01*
X49214286Y-87594342D02*
X49261905Y-87689580D01*
X49261905Y-87689580D02*
X49309524Y-87737200D01*
X49309524Y-87737200D02*
X49404762Y-87784819D01*
X49404762Y-87784819D02*
X49595238Y-87784819D01*
X49595238Y-87784819D02*
X49690476Y-87737200D01*
X49690476Y-87737200D02*
X49738095Y-87689580D01*
X49738095Y-87689580D02*
X49785714Y-87594342D01*
X49785714Y-87594342D02*
X49785714Y-87403866D01*
X49785714Y-87403866D02*
X49738095Y-87308628D01*
X49738095Y-87308628D02*
X49690476Y-87261009D01*
X49690476Y-87261009D02*
X49595238Y-87213390D01*
X78607142Y-102954819D02*
X78273809Y-102478628D01*
X78035714Y-102954819D02*
X78035714Y-101954819D01*
X78035714Y-101954819D02*
X78416666Y-101954819D01*
X78416666Y-101954819D02*
X78511904Y-102002438D01*
X78511904Y-102002438D02*
X78559523Y-102050057D01*
X78559523Y-102050057D02*
X78607142Y-102145295D01*
X78607142Y-102145295D02*
X78607142Y-102288152D01*
X78607142Y-102288152D02*
X78559523Y-102383390D01*
X78559523Y-102383390D02*
X78511904Y-102431009D01*
X78511904Y-102431009D02*
X78416666Y-102478628D01*
X78416666Y-102478628D02*
X78035714Y-102478628D01*
X79559523Y-102954819D02*
X78988095Y-102954819D01*
X79273809Y-102954819D02*
X79273809Y-101954819D01*
X79273809Y-101954819D02*
X79178571Y-102097676D01*
X79178571Y-102097676D02*
X79083333Y-102192914D01*
X79083333Y-102192914D02*
X78988095Y-102240533D01*
X80178571Y-101954819D02*
X80273809Y-101954819D01*
X80273809Y-101954819D02*
X80369047Y-102002438D01*
X80369047Y-102002438D02*
X80416666Y-102050057D01*
X80416666Y-102050057D02*
X80464285Y-102145295D01*
X80464285Y-102145295D02*
X80511904Y-102335771D01*
X80511904Y-102335771D02*
X80511904Y-102573866D01*
X80511904Y-102573866D02*
X80464285Y-102764342D01*
X80464285Y-102764342D02*
X80416666Y-102859580D01*
X80416666Y-102859580D02*
X80369047Y-102907200D01*
X80369047Y-102907200D02*
X80273809Y-102954819D01*
X80273809Y-102954819D02*
X80178571Y-102954819D01*
X80178571Y-102954819D02*
X80083333Y-102907200D01*
X80083333Y-102907200D02*
X80035714Y-102859580D01*
X80035714Y-102859580D02*
X79988095Y-102764342D01*
X79988095Y-102764342D02*
X79940476Y-102573866D01*
X79940476Y-102573866D02*
X79940476Y-102335771D01*
X79940476Y-102335771D02*
X79988095Y-102145295D01*
X79988095Y-102145295D02*
X80035714Y-102050057D01*
X80035714Y-102050057D02*
X80083333Y-102002438D01*
X80083333Y-102002438D02*
X80178571Y-101954819D01*
X48261905Y-115784819D02*
X48261905Y-114784819D01*
X48261905Y-114784819D02*
X48500000Y-114784819D01*
X48500000Y-114784819D02*
X48642857Y-114832438D01*
X48642857Y-114832438D02*
X48738095Y-114927676D01*
X48738095Y-114927676D02*
X48785714Y-115022914D01*
X48785714Y-115022914D02*
X48833333Y-115213390D01*
X48833333Y-115213390D02*
X48833333Y-115356247D01*
X48833333Y-115356247D02*
X48785714Y-115546723D01*
X48785714Y-115546723D02*
X48738095Y-115641961D01*
X48738095Y-115641961D02*
X48642857Y-115737200D01*
X48642857Y-115737200D02*
X48500000Y-115784819D01*
X48500000Y-115784819D02*
X48261905Y-115784819D01*
X49785714Y-115784819D02*
X49214286Y-115784819D01*
X49500000Y-115784819D02*
X49500000Y-114784819D01*
X49500000Y-114784819D02*
X49404762Y-114927676D01*
X49404762Y-114927676D02*
X49309524Y-115022914D01*
X49309524Y-115022914D02*
X49214286Y-115070533D01*
X93650714Y-83179104D02*
X94126904Y-83179104D01*
X93555476Y-83464819D02*
X93888809Y-82464819D01*
X93888809Y-82464819D02*
X94222142Y-83464819D01*
X95079285Y-83464819D02*
X94507857Y-83464819D01*
X94793571Y-83464819D02*
X94793571Y-82464819D01*
X94793571Y-82464819D02*
X94698333Y-82607676D01*
X94698333Y-82607676D02*
X94603095Y-82702914D01*
X94603095Y-82702914D02*
X94507857Y-82750533D01*
X93103095Y-123104819D02*
X93103095Y-123914342D01*
X93103095Y-123914342D02*
X93150714Y-124009580D01*
X93150714Y-124009580D02*
X93198333Y-124057200D01*
X93198333Y-124057200D02*
X93293571Y-124104819D01*
X93293571Y-124104819D02*
X93484047Y-124104819D01*
X93484047Y-124104819D02*
X93579285Y-124057200D01*
X93579285Y-124057200D02*
X93626904Y-124009580D01*
X93626904Y-124009580D02*
X93674523Y-123914342D01*
X93674523Y-123914342D02*
X93674523Y-123104819D01*
X94103095Y-124057200D02*
X94245952Y-124104819D01*
X94245952Y-124104819D02*
X94484047Y-124104819D01*
X94484047Y-124104819D02*
X94579285Y-124057200D01*
X94579285Y-124057200D02*
X94626904Y-124009580D01*
X94626904Y-124009580D02*
X94674523Y-123914342D01*
X94674523Y-123914342D02*
X94674523Y-123819104D01*
X94674523Y-123819104D02*
X94626904Y-123723866D01*
X94626904Y-123723866D02*
X94579285Y-123676247D01*
X94579285Y-123676247D02*
X94484047Y-123628628D01*
X94484047Y-123628628D02*
X94293571Y-123581009D01*
X94293571Y-123581009D02*
X94198333Y-123533390D01*
X94198333Y-123533390D02*
X94150714Y-123485771D01*
X94150714Y-123485771D02*
X94103095Y-123390533D01*
X94103095Y-123390533D02*
X94103095Y-123295295D01*
X94103095Y-123295295D02*
X94150714Y-123200057D01*
X94150714Y-123200057D02*
X94198333Y-123152438D01*
X94198333Y-123152438D02*
X94293571Y-123104819D01*
X94293571Y-123104819D02*
X94531666Y-123104819D01*
X94531666Y-123104819D02*
X94674523Y-123152438D01*
X95436428Y-123581009D02*
X95579285Y-123628628D01*
X95579285Y-123628628D02*
X95626904Y-123676247D01*
X95626904Y-123676247D02*
X95674523Y-123771485D01*
X95674523Y-123771485D02*
X95674523Y-123914342D01*
X95674523Y-123914342D02*
X95626904Y-124009580D01*
X95626904Y-124009580D02*
X95579285Y-124057200D01*
X95579285Y-124057200D02*
X95484047Y-124104819D01*
X95484047Y-124104819D02*
X95103095Y-124104819D01*
X95103095Y-124104819D02*
X95103095Y-123104819D01*
X95103095Y-123104819D02*
X95436428Y-123104819D01*
X95436428Y-123104819D02*
X95531666Y-123152438D01*
X95531666Y-123152438D02*
X95579285Y-123200057D01*
X95579285Y-123200057D02*
X95626904Y-123295295D01*
X95626904Y-123295295D02*
X95626904Y-123390533D01*
X95626904Y-123390533D02*
X95579285Y-123485771D01*
X95579285Y-123485771D02*
X95531666Y-123533390D01*
X95531666Y-123533390D02*
X95436428Y-123581009D01*
X95436428Y-123581009D02*
X95103095Y-123581009D01*
X48276905Y-99784819D02*
X48276905Y-98784819D01*
X48276905Y-98784819D02*
X48515000Y-98784819D01*
X48515000Y-98784819D02*
X48657857Y-98832438D01*
X48657857Y-98832438D02*
X48753095Y-98927676D01*
X48753095Y-98927676D02*
X48800714Y-99022914D01*
X48800714Y-99022914D02*
X48848333Y-99213390D01*
X48848333Y-99213390D02*
X48848333Y-99356247D01*
X48848333Y-99356247D02*
X48800714Y-99546723D01*
X48800714Y-99546723D02*
X48753095Y-99641961D01*
X48753095Y-99641961D02*
X48657857Y-99737200D01*
X48657857Y-99737200D02*
X48515000Y-99784819D01*
X48515000Y-99784819D02*
X48276905Y-99784819D01*
X49753095Y-98784819D02*
X49276905Y-98784819D01*
X49276905Y-98784819D02*
X49229286Y-99261009D01*
X49229286Y-99261009D02*
X49276905Y-99213390D01*
X49276905Y-99213390D02*
X49372143Y-99165771D01*
X49372143Y-99165771D02*
X49610238Y-99165771D01*
X49610238Y-99165771D02*
X49705476Y-99213390D01*
X49705476Y-99213390D02*
X49753095Y-99261009D01*
X49753095Y-99261009D02*
X49800714Y-99356247D01*
X49800714Y-99356247D02*
X49800714Y-99594342D01*
X49800714Y-99594342D02*
X49753095Y-99689580D01*
X49753095Y-99689580D02*
X49705476Y-99737200D01*
X49705476Y-99737200D02*
X49610238Y-99784819D01*
X49610238Y-99784819D02*
X49372143Y-99784819D01*
X49372143Y-99784819D02*
X49276905Y-99737200D01*
X49276905Y-99737200D02*
X49229286Y-99689580D01*
X78582142Y-97954819D02*
X78248809Y-97478628D01*
X78010714Y-97954819D02*
X78010714Y-96954819D01*
X78010714Y-96954819D02*
X78391666Y-96954819D01*
X78391666Y-96954819D02*
X78486904Y-97002438D01*
X78486904Y-97002438D02*
X78534523Y-97050057D01*
X78534523Y-97050057D02*
X78582142Y-97145295D01*
X78582142Y-97145295D02*
X78582142Y-97288152D01*
X78582142Y-97288152D02*
X78534523Y-97383390D01*
X78534523Y-97383390D02*
X78486904Y-97431009D01*
X78486904Y-97431009D02*
X78391666Y-97478628D01*
X78391666Y-97478628D02*
X78010714Y-97478628D01*
X79534523Y-97954819D02*
X78963095Y-97954819D01*
X79248809Y-97954819D02*
X79248809Y-96954819D01*
X79248809Y-96954819D02*
X79153571Y-97097676D01*
X79153571Y-97097676D02*
X79058333Y-97192914D01*
X79058333Y-97192914D02*
X78963095Y-97240533D01*
X79915476Y-97050057D02*
X79963095Y-97002438D01*
X79963095Y-97002438D02*
X80058333Y-96954819D01*
X80058333Y-96954819D02*
X80296428Y-96954819D01*
X80296428Y-96954819D02*
X80391666Y-97002438D01*
X80391666Y-97002438D02*
X80439285Y-97050057D01*
X80439285Y-97050057D02*
X80486904Y-97145295D01*
X80486904Y-97145295D02*
X80486904Y-97240533D01*
X80486904Y-97240533D02*
X80439285Y-97383390D01*
X80439285Y-97383390D02*
X79867857Y-97954819D01*
X79867857Y-97954819D02*
X80486904Y-97954819D01*
X48276905Y-111784819D02*
X48276905Y-110784819D01*
X48276905Y-110784819D02*
X48515000Y-110784819D01*
X48515000Y-110784819D02*
X48657857Y-110832438D01*
X48657857Y-110832438D02*
X48753095Y-110927676D01*
X48753095Y-110927676D02*
X48800714Y-111022914D01*
X48800714Y-111022914D02*
X48848333Y-111213390D01*
X48848333Y-111213390D02*
X48848333Y-111356247D01*
X48848333Y-111356247D02*
X48800714Y-111546723D01*
X48800714Y-111546723D02*
X48753095Y-111641961D01*
X48753095Y-111641961D02*
X48657857Y-111737200D01*
X48657857Y-111737200D02*
X48515000Y-111784819D01*
X48515000Y-111784819D02*
X48276905Y-111784819D01*
X49229286Y-110880057D02*
X49276905Y-110832438D01*
X49276905Y-110832438D02*
X49372143Y-110784819D01*
X49372143Y-110784819D02*
X49610238Y-110784819D01*
X49610238Y-110784819D02*
X49705476Y-110832438D01*
X49705476Y-110832438D02*
X49753095Y-110880057D01*
X49753095Y-110880057D02*
X49800714Y-110975295D01*
X49800714Y-110975295D02*
X49800714Y-111070533D01*
X49800714Y-111070533D02*
X49753095Y-111213390D01*
X49753095Y-111213390D02*
X49181667Y-111784819D01*
X49181667Y-111784819D02*
X49800714Y-111784819D01*
X48276905Y-107784819D02*
X48276905Y-106784819D01*
X48276905Y-106784819D02*
X48515000Y-106784819D01*
X48515000Y-106784819D02*
X48657857Y-106832438D01*
X48657857Y-106832438D02*
X48753095Y-106927676D01*
X48753095Y-106927676D02*
X48800714Y-107022914D01*
X48800714Y-107022914D02*
X48848333Y-107213390D01*
X48848333Y-107213390D02*
X48848333Y-107356247D01*
X48848333Y-107356247D02*
X48800714Y-107546723D01*
X48800714Y-107546723D02*
X48753095Y-107641961D01*
X48753095Y-107641961D02*
X48657857Y-107737200D01*
X48657857Y-107737200D02*
X48515000Y-107784819D01*
X48515000Y-107784819D02*
X48276905Y-107784819D01*
X49181667Y-106784819D02*
X49800714Y-106784819D01*
X49800714Y-106784819D02*
X49467381Y-107165771D01*
X49467381Y-107165771D02*
X49610238Y-107165771D01*
X49610238Y-107165771D02*
X49705476Y-107213390D01*
X49705476Y-107213390D02*
X49753095Y-107261009D01*
X49753095Y-107261009D02*
X49800714Y-107356247D01*
X49800714Y-107356247D02*
X49800714Y-107594342D01*
X49800714Y-107594342D02*
X49753095Y-107689580D01*
X49753095Y-107689580D02*
X49705476Y-107737200D01*
X49705476Y-107737200D02*
X49610238Y-107784819D01*
X49610238Y-107784819D02*
X49324524Y-107784819D01*
X49324524Y-107784819D02*
X49229286Y-107737200D01*
X49229286Y-107737200D02*
X49181667Y-107689580D01*
X79083333Y-123454819D02*
X78750000Y-122978628D01*
X78511905Y-123454819D02*
X78511905Y-122454819D01*
X78511905Y-122454819D02*
X78892857Y-122454819D01*
X78892857Y-122454819D02*
X78988095Y-122502438D01*
X78988095Y-122502438D02*
X79035714Y-122550057D01*
X79035714Y-122550057D02*
X79083333Y-122645295D01*
X79083333Y-122645295D02*
X79083333Y-122788152D01*
X79083333Y-122788152D02*
X79035714Y-122883390D01*
X79035714Y-122883390D02*
X78988095Y-122931009D01*
X78988095Y-122931009D02*
X78892857Y-122978628D01*
X78892857Y-122978628D02*
X78511905Y-122978628D01*
X79464286Y-122550057D02*
X79511905Y-122502438D01*
X79511905Y-122502438D02*
X79607143Y-122454819D01*
X79607143Y-122454819D02*
X79845238Y-122454819D01*
X79845238Y-122454819D02*
X79940476Y-122502438D01*
X79940476Y-122502438D02*
X79988095Y-122550057D01*
X79988095Y-122550057D02*
X80035714Y-122645295D01*
X80035714Y-122645295D02*
X80035714Y-122740533D01*
X80035714Y-122740533D02*
X79988095Y-122883390D01*
X79988095Y-122883390D02*
X79416667Y-123454819D01*
X79416667Y-123454819D02*
X80035714Y-123454819D01*
X48246905Y-91784819D02*
X48246905Y-90784819D01*
X48246905Y-90784819D02*
X48485000Y-90784819D01*
X48485000Y-90784819D02*
X48627857Y-90832438D01*
X48627857Y-90832438D02*
X48723095Y-90927676D01*
X48723095Y-90927676D02*
X48770714Y-91022914D01*
X48770714Y-91022914D02*
X48818333Y-91213390D01*
X48818333Y-91213390D02*
X48818333Y-91356247D01*
X48818333Y-91356247D02*
X48770714Y-91546723D01*
X48770714Y-91546723D02*
X48723095Y-91641961D01*
X48723095Y-91641961D02*
X48627857Y-91737200D01*
X48627857Y-91737200D02*
X48485000Y-91784819D01*
X48485000Y-91784819D02*
X48246905Y-91784819D01*
X49151667Y-90784819D02*
X49818333Y-90784819D01*
X49818333Y-90784819D02*
X49389762Y-91784819D01*
X79083333Y-105454819D02*
X78750000Y-104978628D01*
X78511905Y-105454819D02*
X78511905Y-104454819D01*
X78511905Y-104454819D02*
X78892857Y-104454819D01*
X78892857Y-104454819D02*
X78988095Y-104502438D01*
X78988095Y-104502438D02*
X79035714Y-104550057D01*
X79035714Y-104550057D02*
X79083333Y-104645295D01*
X79083333Y-104645295D02*
X79083333Y-104788152D01*
X79083333Y-104788152D02*
X79035714Y-104883390D01*
X79035714Y-104883390D02*
X78988095Y-104931009D01*
X78988095Y-104931009D02*
X78892857Y-104978628D01*
X78892857Y-104978628D02*
X78511905Y-104978628D01*
X79559524Y-105454819D02*
X79750000Y-105454819D01*
X79750000Y-105454819D02*
X79845238Y-105407200D01*
X79845238Y-105407200D02*
X79892857Y-105359580D01*
X79892857Y-105359580D02*
X79988095Y-105216723D01*
X79988095Y-105216723D02*
X80035714Y-105026247D01*
X80035714Y-105026247D02*
X80035714Y-104645295D01*
X80035714Y-104645295D02*
X79988095Y-104550057D01*
X79988095Y-104550057D02*
X79940476Y-104502438D01*
X79940476Y-104502438D02*
X79845238Y-104454819D01*
X79845238Y-104454819D02*
X79654762Y-104454819D01*
X79654762Y-104454819D02*
X79559524Y-104502438D01*
X79559524Y-104502438D02*
X79511905Y-104550057D01*
X79511905Y-104550057D02*
X79464286Y-104645295D01*
X79464286Y-104645295D02*
X79464286Y-104883390D01*
X79464286Y-104883390D02*
X79511905Y-104978628D01*
X79511905Y-104978628D02*
X79559524Y-105026247D01*
X79559524Y-105026247D02*
X79654762Y-105073866D01*
X79654762Y-105073866D02*
X79845238Y-105073866D01*
X79845238Y-105073866D02*
X79940476Y-105026247D01*
X79940476Y-105026247D02*
X79988095Y-104978628D01*
X79988095Y-104978628D02*
X80035714Y-104883390D01*
X78607142Y-100454819D02*
X78273809Y-99978628D01*
X78035714Y-100454819D02*
X78035714Y-99454819D01*
X78035714Y-99454819D02*
X78416666Y-99454819D01*
X78416666Y-99454819D02*
X78511904Y-99502438D01*
X78511904Y-99502438D02*
X78559523Y-99550057D01*
X78559523Y-99550057D02*
X78607142Y-99645295D01*
X78607142Y-99645295D02*
X78607142Y-99788152D01*
X78607142Y-99788152D02*
X78559523Y-99883390D01*
X78559523Y-99883390D02*
X78511904Y-99931009D01*
X78511904Y-99931009D02*
X78416666Y-99978628D01*
X78416666Y-99978628D02*
X78035714Y-99978628D01*
X79559523Y-100454819D02*
X78988095Y-100454819D01*
X79273809Y-100454819D02*
X79273809Y-99454819D01*
X79273809Y-99454819D02*
X79178571Y-99597676D01*
X79178571Y-99597676D02*
X79083333Y-99692914D01*
X79083333Y-99692914D02*
X78988095Y-99740533D01*
X80511904Y-100454819D02*
X79940476Y-100454819D01*
X80226190Y-100454819D02*
X80226190Y-99454819D01*
X80226190Y-99454819D02*
X80130952Y-99597676D01*
X80130952Y-99597676D02*
X80035714Y-99692914D01*
X80035714Y-99692914D02*
X79940476Y-99740533D01*
X48261905Y-95784819D02*
X48261905Y-94784819D01*
X48261905Y-94784819D02*
X48500000Y-94784819D01*
X48500000Y-94784819D02*
X48642857Y-94832438D01*
X48642857Y-94832438D02*
X48738095Y-94927676D01*
X48738095Y-94927676D02*
X48785714Y-95022914D01*
X48785714Y-95022914D02*
X48833333Y-95213390D01*
X48833333Y-95213390D02*
X48833333Y-95356247D01*
X48833333Y-95356247D02*
X48785714Y-95546723D01*
X48785714Y-95546723D02*
X48738095Y-95641961D01*
X48738095Y-95641961D02*
X48642857Y-95737200D01*
X48642857Y-95737200D02*
X48500000Y-95784819D01*
X48500000Y-95784819D02*
X48261905Y-95784819D01*
X49690476Y-94784819D02*
X49500000Y-94784819D01*
X49500000Y-94784819D02*
X49404762Y-94832438D01*
X49404762Y-94832438D02*
X49357143Y-94880057D01*
X49357143Y-94880057D02*
X49261905Y-95022914D01*
X49261905Y-95022914D02*
X49214286Y-95213390D01*
X49214286Y-95213390D02*
X49214286Y-95594342D01*
X49214286Y-95594342D02*
X49261905Y-95689580D01*
X49261905Y-95689580D02*
X49309524Y-95737200D01*
X49309524Y-95737200D02*
X49404762Y-95784819D01*
X49404762Y-95784819D02*
X49595238Y-95784819D01*
X49595238Y-95784819D02*
X49690476Y-95737200D01*
X49690476Y-95737200D02*
X49738095Y-95689580D01*
X49738095Y-95689580D02*
X49785714Y-95594342D01*
X49785714Y-95594342D02*
X49785714Y-95356247D01*
X49785714Y-95356247D02*
X49738095Y-95261009D01*
X49738095Y-95261009D02*
X49690476Y-95213390D01*
X49690476Y-95213390D02*
X49595238Y-95165771D01*
X49595238Y-95165771D02*
X49404762Y-95165771D01*
X49404762Y-95165771D02*
X49309524Y-95213390D01*
X49309524Y-95213390D02*
X49261905Y-95261009D01*
X49261905Y-95261009D02*
X49214286Y-95356247D01*
X56583333Y-118954819D02*
X56250000Y-118478628D01*
X56011905Y-118954819D02*
X56011905Y-117954819D01*
X56011905Y-117954819D02*
X56392857Y-117954819D01*
X56392857Y-117954819D02*
X56488095Y-118002438D01*
X56488095Y-118002438D02*
X56535714Y-118050057D01*
X56535714Y-118050057D02*
X56583333Y-118145295D01*
X56583333Y-118145295D02*
X56583333Y-118288152D01*
X56583333Y-118288152D02*
X56535714Y-118383390D01*
X56535714Y-118383390D02*
X56488095Y-118431009D01*
X56488095Y-118431009D02*
X56392857Y-118478628D01*
X56392857Y-118478628D02*
X56011905Y-118478628D01*
X57535714Y-118954819D02*
X56964286Y-118954819D01*
X57250000Y-118954819D02*
X57250000Y-117954819D01*
X57250000Y-117954819D02*
X57154762Y-118097676D01*
X57154762Y-118097676D02*
X57059524Y-118192914D01*
X57059524Y-118192914D02*
X56964286Y-118240533D01*
X47800714Y-72784819D02*
X47800714Y-71784819D01*
X47800714Y-71784819D02*
X48038809Y-71784819D01*
X48038809Y-71784819D02*
X48181666Y-71832438D01*
X48181666Y-71832438D02*
X48276904Y-71927676D01*
X48276904Y-71927676D02*
X48324523Y-72022914D01*
X48324523Y-72022914D02*
X48372142Y-72213390D01*
X48372142Y-72213390D02*
X48372142Y-72356247D01*
X48372142Y-72356247D02*
X48324523Y-72546723D01*
X48324523Y-72546723D02*
X48276904Y-72641961D01*
X48276904Y-72641961D02*
X48181666Y-72737200D01*
X48181666Y-72737200D02*
X48038809Y-72784819D01*
X48038809Y-72784819D02*
X47800714Y-72784819D01*
X49324523Y-72784819D02*
X48753095Y-72784819D01*
X49038809Y-72784819D02*
X49038809Y-71784819D01*
X49038809Y-71784819D02*
X48943571Y-71927676D01*
X48943571Y-71927676D02*
X48848333Y-72022914D01*
X48848333Y-72022914D02*
X48753095Y-72070533D01*
X49705476Y-71880057D02*
X49753095Y-71832438D01*
X49753095Y-71832438D02*
X49848333Y-71784819D01*
X49848333Y-71784819D02*
X50086428Y-71784819D01*
X50086428Y-71784819D02*
X50181666Y-71832438D01*
X50181666Y-71832438D02*
X50229285Y-71880057D01*
X50229285Y-71880057D02*
X50276904Y-71975295D01*
X50276904Y-71975295D02*
X50276904Y-72070533D01*
X50276904Y-72070533D02*
X50229285Y-72213390D01*
X50229285Y-72213390D02*
X49657857Y-72784819D01*
X49657857Y-72784819D02*
X50276904Y-72784819D01*
X79083333Y-121454819D02*
X78750000Y-120978628D01*
X78511905Y-121454819D02*
X78511905Y-120454819D01*
X78511905Y-120454819D02*
X78892857Y-120454819D01*
X78892857Y-120454819D02*
X78988095Y-120502438D01*
X78988095Y-120502438D02*
X79035714Y-120550057D01*
X79035714Y-120550057D02*
X79083333Y-120645295D01*
X79083333Y-120645295D02*
X79083333Y-120788152D01*
X79083333Y-120788152D02*
X79035714Y-120883390D01*
X79035714Y-120883390D02*
X78988095Y-120931009D01*
X78988095Y-120931009D02*
X78892857Y-120978628D01*
X78892857Y-120978628D02*
X78511905Y-120978628D01*
X79416667Y-120454819D02*
X80035714Y-120454819D01*
X80035714Y-120454819D02*
X79702381Y-120835771D01*
X79702381Y-120835771D02*
X79845238Y-120835771D01*
X79845238Y-120835771D02*
X79940476Y-120883390D01*
X79940476Y-120883390D02*
X79988095Y-120931009D01*
X79988095Y-120931009D02*
X80035714Y-121026247D01*
X80035714Y-121026247D02*
X80035714Y-121264342D01*
X80035714Y-121264342D02*
X79988095Y-121359580D01*
X79988095Y-121359580D02*
X79940476Y-121407200D01*
X79940476Y-121407200D02*
X79845238Y-121454819D01*
X79845238Y-121454819D02*
X79559524Y-121454819D01*
X79559524Y-121454819D02*
X79464286Y-121407200D01*
X79464286Y-121407200D02*
X79416667Y-121359580D01*
X48261905Y-83784819D02*
X48261905Y-82784819D01*
X48261905Y-82784819D02*
X48500000Y-82784819D01*
X48500000Y-82784819D02*
X48642857Y-82832438D01*
X48642857Y-82832438D02*
X48738095Y-82927676D01*
X48738095Y-82927676D02*
X48785714Y-83022914D01*
X48785714Y-83022914D02*
X48833333Y-83213390D01*
X48833333Y-83213390D02*
X48833333Y-83356247D01*
X48833333Y-83356247D02*
X48785714Y-83546723D01*
X48785714Y-83546723D02*
X48738095Y-83641961D01*
X48738095Y-83641961D02*
X48642857Y-83737200D01*
X48642857Y-83737200D02*
X48500000Y-83784819D01*
X48500000Y-83784819D02*
X48261905Y-83784819D01*
X49309524Y-83784819D02*
X49500000Y-83784819D01*
X49500000Y-83784819D02*
X49595238Y-83737200D01*
X49595238Y-83737200D02*
X49642857Y-83689580D01*
X49642857Y-83689580D02*
X49738095Y-83546723D01*
X49738095Y-83546723D02*
X49785714Y-83356247D01*
X49785714Y-83356247D02*
X49785714Y-82975295D01*
X49785714Y-82975295D02*
X49738095Y-82880057D01*
X49738095Y-82880057D02*
X49690476Y-82832438D01*
X49690476Y-82832438D02*
X49595238Y-82784819D01*
X49595238Y-82784819D02*
X49404762Y-82784819D01*
X49404762Y-82784819D02*
X49309524Y-82832438D01*
X49309524Y-82832438D02*
X49261905Y-82880057D01*
X49261905Y-82880057D02*
X49214286Y-82975295D01*
X49214286Y-82975295D02*
X49214286Y-83213390D01*
X49214286Y-83213390D02*
X49261905Y-83308628D01*
X49261905Y-83308628D02*
X49309524Y-83356247D01*
X49309524Y-83356247D02*
X49404762Y-83403866D01*
X49404762Y-83403866D02*
X49595238Y-83403866D01*
X49595238Y-83403866D02*
X49690476Y-83356247D01*
X49690476Y-83356247D02*
X49738095Y-83308628D01*
X49738095Y-83308628D02*
X49785714Y-83213390D01*
X79058333Y-110454819D02*
X78725000Y-109978628D01*
X78486905Y-110454819D02*
X78486905Y-109454819D01*
X78486905Y-109454819D02*
X78867857Y-109454819D01*
X78867857Y-109454819D02*
X78963095Y-109502438D01*
X78963095Y-109502438D02*
X79010714Y-109550057D01*
X79010714Y-109550057D02*
X79058333Y-109645295D01*
X79058333Y-109645295D02*
X79058333Y-109788152D01*
X79058333Y-109788152D02*
X79010714Y-109883390D01*
X79010714Y-109883390D02*
X78963095Y-109931009D01*
X78963095Y-109931009D02*
X78867857Y-109978628D01*
X78867857Y-109978628D02*
X78486905Y-109978628D01*
X79391667Y-109454819D02*
X80058333Y-109454819D01*
X80058333Y-109454819D02*
X79629762Y-110454819D01*
X48246905Y-103784819D02*
X48246905Y-102784819D01*
X48246905Y-102784819D02*
X48485000Y-102784819D01*
X48485000Y-102784819D02*
X48627857Y-102832438D01*
X48627857Y-102832438D02*
X48723095Y-102927676D01*
X48723095Y-102927676D02*
X48770714Y-103022914D01*
X48770714Y-103022914D02*
X48818333Y-103213390D01*
X48818333Y-103213390D02*
X48818333Y-103356247D01*
X48818333Y-103356247D02*
X48770714Y-103546723D01*
X48770714Y-103546723D02*
X48723095Y-103641961D01*
X48723095Y-103641961D02*
X48627857Y-103737200D01*
X48627857Y-103737200D02*
X48485000Y-103784819D01*
X48485000Y-103784819D02*
X48246905Y-103784819D01*
X49675476Y-103118152D02*
X49675476Y-103784819D01*
X49437381Y-102737200D02*
X49199286Y-103451485D01*
X49199286Y-103451485D02*
X49818333Y-103451485D01*
D10*
%TO.C,D10*%
X47945000Y-81000000D02*
G75*
G02*
X47845000Y-81000000I-50000J0D01*
G01*
X47845000Y-81000000D02*
G75*
G02*
X47945000Y-81000000I50000J0D01*
G01*
%TO.C,D11*%
X47960000Y-77000000D02*
G75*
G02*
X47860000Y-77000000I-50000J0D01*
G01*
X47860000Y-77000000D02*
G75*
G02*
X47960000Y-77000000I50000J0D01*
G01*
%TO.C,D8*%
X47960000Y-88500000D02*
G75*
G02*
X47860000Y-88500000I-50000J0D01*
G01*
X47860000Y-88500000D02*
G75*
G02*
X47960000Y-88500000I50000J0D01*
G01*
%TO.C,D1*%
X47960000Y-116500000D02*
G75*
G02*
X47860000Y-116500000I-50000J0D01*
G01*
X47860000Y-116500000D02*
G75*
G02*
X47960000Y-116500000I50000J0D01*
G01*
D12*
%TO.C,A1*%
X85345000Y-84150000D02*
X85345000Y-86820000D01*
X85345000Y-89360000D02*
X85345000Y-127590000D01*
X85345000Y-127590000D02*
X90425000Y-127590000D01*
X88015000Y-86820000D02*
X85345000Y-86820000D01*
X88015000Y-89360000D02*
X85345000Y-89360000D01*
X88015000Y-89360000D02*
X88015000Y-86820000D01*
X88015000Y-89360000D02*
X88015000Y-124920000D01*
X88015000Y-124920000D02*
X85345000Y-124920000D01*
X90425000Y-119710000D02*
X98305000Y-119710000D01*
X90425000Y-130130000D02*
X90425000Y-119710000D01*
X98305000Y-119710000D02*
X98305000Y-130130000D01*
X98305000Y-130130000D02*
X90425000Y-130130000D01*
X100715000Y-86820000D02*
X100715000Y-124920000D01*
X100715000Y-86820000D02*
X103385000Y-86820000D01*
X100715000Y-124920000D02*
X103385000Y-124920000D01*
X103385000Y-84150000D02*
X85345000Y-84150000D01*
X103385000Y-127590000D02*
X98305000Y-127590000D01*
X103385000Y-127590000D02*
X103385000Y-84150000D01*
D10*
%TO.C,D5*%
X47975000Y-100500000D02*
G75*
G02*
X47875000Y-100500000I-50000J0D01*
G01*
X47875000Y-100500000D02*
G75*
G02*
X47975000Y-100500000I50000J0D01*
G01*
%TO.C,D2*%
X47975000Y-112500000D02*
G75*
G02*
X47875000Y-112500000I-50000J0D01*
G01*
X47875000Y-112500000D02*
G75*
G02*
X47975000Y-112500000I50000J0D01*
G01*
%TO.C,D3*%
X47975000Y-108500000D02*
G75*
G02*
X47875000Y-108500000I-50000J0D01*
G01*
X47875000Y-108500000D02*
G75*
G02*
X47975000Y-108500000I50000J0D01*
G01*
%TO.C,D7*%
X47945000Y-92500000D02*
G75*
G02*
X47845000Y-92500000I-50000J0D01*
G01*
X47845000Y-92500000D02*
G75*
G02*
X47945000Y-92500000I50000J0D01*
G01*
%TO.C,D6*%
X47960000Y-96500000D02*
G75*
G02*
X47860000Y-96500000I-50000J0D01*
G01*
X47860000Y-96500000D02*
G75*
G02*
X47960000Y-96500000I50000J0D01*
G01*
%TO.C,D12*%
X47975000Y-73500000D02*
G75*
G02*
X47875000Y-73500000I-50000J0D01*
G01*
X47875000Y-73500000D02*
G75*
G02*
X47975000Y-73500000I50000J0D01*
G01*
%TO.C,D9*%
X47960000Y-84500000D02*
G75*
G02*
X47860000Y-84500000I-50000J0D01*
G01*
X47860000Y-84500000D02*
G75*
G02*
X47960000Y-84500000I50000J0D01*
G01*
%TO.C,D4*%
X47945000Y-104500000D02*
G75*
G02*
X47845000Y-104500000I-50000J0D01*
G01*
X47845000Y-104500000D02*
G75*
G02*
X47945000Y-104500000I50000J0D01*
G01*
%TD*%
M02*
