%TF.GenerationSoftware,KiCad,Pcbnew,8.0.3*%
%TF.CreationDate,2024-08-30T12:54:20-04:00*%
%TF.ProjectId,matrix,6d617472-6978-42e6-9b69-6361645f7063,rev?*%
%TF.SameCoordinates,Original*%
%TF.FileFunction,Copper,L1,Top*%
%TF.FilePolarity,Positive*%
%FSLAX46Y46*%
G04 Gerber Fmt 4.6, Leading zero omitted, Abs format (unit mm)*
G04 Created by KiCad (PCBNEW 8.0.3) date 2024-08-30 12:54:20*
%MOMM*%
%LPD*%
G01*
G04 APERTURE LIST*
G04 Aperture macros list*
%AMRoundRect*
0 Rectangle with rounded corners*
0 $1 Rounding radius*
0 $2 $3 $4 $5 $6 $7 $8 $9 X,Y pos of 4 corners*
0 Add a 4 corners polygon primitive as box body*
4,1,4,$2,$3,$4,$5,$6,$7,$8,$9,$2,$3,0*
0 Add four circle primitives for the rounded corners*
1,1,$1+$1,$2,$3*
1,1,$1+$1,$4,$5*
1,1,$1+$1,$6,$7*
1,1,$1+$1,$8,$9*
0 Add four rect primitives between the rounded corners*
20,1,$1+$1,$2,$3,$4,$5,0*
20,1,$1+$1,$4,$5,$6,$7,0*
20,1,$1+$1,$6,$7,$8,$9,0*
20,1,$1+$1,$8,$9,$2,$3,0*%
G04 Aperture macros list end*
%TA.AperFunction,SMDPad,CuDef*%
%ADD10RoundRect,0.147500X-0.147500X-0.172500X0.147500X-0.172500X0.147500X0.172500X-0.147500X0.172500X0*%
%TD*%
%TA.AperFunction,SMDPad,CuDef*%
%ADD11RoundRect,0.075000X-0.125000X-0.075000X0.125000X-0.075000X0.125000X0.075000X-0.125000X0.075000X0*%
%TD*%
%TA.AperFunction,ComponentPad*%
%ADD12R,1.600000X1.600000*%
%TD*%
%TA.AperFunction,ComponentPad*%
%ADD13O,1.600000X1.600000*%
%TD*%
%TA.AperFunction,Conductor*%
%ADD14C,0.200000*%
%TD*%
G04 APERTURE END LIST*
D10*
%TO.P,D10,1,K*%
%TO.N,Net-(D1-K)*%
X48500000Y-81000000D03*
%TO.P,D10,2,A*%
%TO.N,Net-(D10-A)*%
X49470000Y-81000000D03*
%TD*%
%TO.P,D11,1,K*%
%TO.N,Net-(D1-K)*%
X48515000Y-77000000D03*
%TO.P,D11,2,A*%
%TO.N,Net-(D11-A)*%
X49485000Y-77000000D03*
%TD*%
D11*
%TO.P,R8,1*%
%TO.N,Net-(A1-D6)*%
X79250000Y-108500000D03*
%TO.P,R8,2*%
%TO.N,Net-(D7-A)*%
X79750000Y-108500000D03*
%TD*%
%TO.P,R4,1*%
%TO.N,Net-(A1-D10)*%
X79000000Y-119000000D03*
%TO.P,R4,2*%
%TO.N,Net-(D4-A)*%
X79500000Y-119000000D03*
%TD*%
%TO.P,R5,1*%
%TO.N,Net-(A1-D9)*%
X79250000Y-116500000D03*
%TO.P,R5,2*%
%TO.N,Net-(D5-A)*%
X79750000Y-116500000D03*
%TD*%
%TO.P,R6,1*%
%TO.N,Net-(A1-D8)*%
X79250000Y-113500000D03*
%TO.P,R6,2*%
%TO.N,Net-(D12-A)*%
X79750000Y-113500000D03*
%TD*%
D10*
%TO.P,D8,1,K*%
%TO.N,Net-(D1-K)*%
X48515000Y-88500000D03*
%TO.P,D8,2,A*%
%TO.N,Net-(D8-A)*%
X49485000Y-88500000D03*
%TD*%
D11*
%TO.P,R10,1*%
%TO.N,Net-(A1-D4)*%
X79000000Y-103500000D03*
%TO.P,R10,2*%
%TO.N,Net-(D9-A)*%
X79500000Y-103500000D03*
%TD*%
D10*
%TO.P,D1,1,K*%
%TO.N,Net-(D1-K)*%
X48515000Y-116500000D03*
%TO.P,D1,2,A*%
%TO.N,Net-(D1-A)*%
X49485000Y-116500000D03*
%TD*%
D12*
%TO.P,A1,1,D1/TX*%
%TO.N,unconnected-(A1-D1{slash}TX-Pad1)*%
X86745000Y-88090000D03*
D13*
%TO.P,A1,2,D0/RX*%
%TO.N,unconnected-(A1-D0{slash}RX-Pad2)*%
X86745000Y-90630000D03*
%TO.P,A1,3,~{RESET}*%
%TO.N,unconnected-(A1-~{RESET}-Pad3)*%
X86745000Y-93170000D03*
%TO.P,A1,4,GND*%
%TO.N,Net-(D1-K)*%
X86745000Y-95710000D03*
%TO.P,A1,5,D2*%
%TO.N,Net-(A1-D2)*%
X86745000Y-98250000D03*
%TO.P,A1,6,D3*%
%TO.N,Net-(A1-A0)*%
X86745000Y-100790000D03*
%TO.P,A1,7,D4*%
%TO.N,Net-(A1-D4)*%
X86745000Y-103330000D03*
%TO.P,A1,8,D5*%
%TO.N,Net-(A1-D5)*%
X86745000Y-105870000D03*
%TO.P,A1,9,D6*%
%TO.N,Net-(A1-D6)*%
X86745000Y-108410000D03*
%TO.P,A1,10,D7*%
%TO.N,Net-(A1-D7)*%
X86745000Y-110950000D03*
%TO.P,A1,11,D8*%
%TO.N,Net-(A1-D8)*%
X86745000Y-113490000D03*
%TO.P,A1,12,D9*%
%TO.N,Net-(A1-D9)*%
X86745000Y-116030000D03*
%TO.P,A1,13,D10*%
%TO.N,Net-(A1-D10)*%
X86745000Y-118570000D03*
%TO.P,A1,14,D11*%
%TO.N,Net-(A1-D11)*%
X86745000Y-121110000D03*
%TO.P,A1,15,D12*%
%TO.N,Net-(A1-D12)*%
X86745000Y-123650000D03*
%TO.P,A1,16,D13*%
%TO.N,Net-(A1-D13)*%
X101985000Y-123650000D03*
%TO.P,A1,17,3V3*%
%TO.N,unconnected-(A1-3V3-Pad17)*%
X101985000Y-121110000D03*
%TO.P,A1,18,AREF*%
%TO.N,unconnected-(A1-AREF-Pad18)*%
X101985000Y-118570000D03*
%TO.P,A1,19,A0*%
%TO.N,Net-(A1-A0)*%
X101985000Y-116030000D03*
%TO.P,A1,20,A1*%
%TO.N,unconnected-(A1-A1-Pad20)*%
X101985000Y-113490000D03*
%TO.P,A1,21,A2*%
%TO.N,unconnected-(A1-A2-Pad21)*%
X101985000Y-110950000D03*
%TO.P,A1,22,A3*%
%TO.N,unconnected-(A1-A3-Pad22)*%
X101985000Y-108410000D03*
%TO.P,A1,23,A4*%
%TO.N,unconnected-(A1-A4-Pad23)*%
X101985000Y-105870000D03*
%TO.P,A1,24,A5*%
%TO.N,unconnected-(A1-A5-Pad24)*%
X101985000Y-103330000D03*
%TO.P,A1,25,A6*%
%TO.N,unconnected-(A1-A6-Pad25)*%
X101985000Y-100790000D03*
%TO.P,A1,26,A7*%
%TO.N,unconnected-(A1-A7-Pad26)*%
X101985000Y-98250000D03*
%TO.P,A1,27,+5V*%
%TO.N,unconnected-(A1-+5V-Pad27)*%
X101985000Y-95710000D03*
%TO.P,A1,28,~{RESET}*%
%TO.N,unconnected-(A1-~{RESET}-Pad28)*%
X101985000Y-93170000D03*
%TO.P,A1,29,GND*%
%TO.N,unconnected-(A1-GND-Pad29)*%
X101985000Y-90630000D03*
%TO.P,A1,30,VIN*%
%TO.N,unconnected-(A1-VIN-Pad30)*%
X101985000Y-88090000D03*
%TD*%
D10*
%TO.P,D5,1,K*%
%TO.N,Net-(D1-K)*%
X48530000Y-100500000D03*
%TO.P,D5,2,A*%
%TO.N,Net-(D5-A)*%
X49500000Y-100500000D03*
%TD*%
D11*
%TO.P,R12,1*%
%TO.N,Net-(A1-D2)*%
X78975000Y-98500000D03*
%TO.P,R12,2*%
%TO.N,Net-(D11-A)*%
X79475000Y-98500000D03*
%TD*%
D10*
%TO.P,D2,1,K*%
%TO.N,Net-(D1-K)*%
X48530000Y-112500000D03*
%TO.P,D2,2,A*%
%TO.N,Net-(D2-A)*%
X49500000Y-112500000D03*
%TD*%
%TO.P,D3,1,K*%
%TO.N,Net-(D1-K)*%
X48530000Y-108500000D03*
%TO.P,D3,2,A*%
%TO.N,Net-(D3-A)*%
X49500000Y-108500000D03*
%TD*%
D11*
%TO.P,R2,1*%
%TO.N,Net-(A1-D12)*%
X79000000Y-124000000D03*
%TO.P,R2,2*%
%TO.N,Net-(D2-A)*%
X79500000Y-124000000D03*
%TD*%
D10*
%TO.P,D7,1,K*%
%TO.N,Net-(D1-K)*%
X48500000Y-92500000D03*
%TO.P,D7,2,A*%
%TO.N,Net-(D7-A)*%
X49470000Y-92500000D03*
%TD*%
D11*
%TO.P,R9,1*%
%TO.N,Net-(A1-D5)*%
X79000000Y-106000000D03*
%TO.P,R9,2*%
%TO.N,Net-(D8-A)*%
X79500000Y-106000000D03*
%TD*%
%TO.P,R11,1*%
%TO.N,Net-(A1-A0)*%
X79000000Y-101000000D03*
%TO.P,R11,2*%
%TO.N,Net-(D10-A)*%
X79500000Y-101000000D03*
%TD*%
D10*
%TO.P,D6,1,K*%
%TO.N,Net-(D1-K)*%
X48515000Y-96500000D03*
%TO.P,D6,2,A*%
%TO.N,Net-(D6-A)*%
X49485000Y-96500000D03*
%TD*%
D11*
%TO.P,R1,1*%
%TO.N,Net-(A1-D13)*%
X56500000Y-119500000D03*
%TO.P,R1,2*%
%TO.N,Net-(D1-A)*%
X57000000Y-119500000D03*
%TD*%
D10*
%TO.P,D12,1,K*%
%TO.N,Net-(D1-K)*%
X48530000Y-73500000D03*
%TO.P,D12,2,A*%
%TO.N,Net-(D12-A)*%
X49500000Y-73500000D03*
%TD*%
D11*
%TO.P,R3,1*%
%TO.N,Net-(A1-D11)*%
X79000000Y-122000000D03*
%TO.P,R3,2*%
%TO.N,Net-(D3-A)*%
X79500000Y-122000000D03*
%TD*%
D10*
%TO.P,D9,1,K*%
%TO.N,Net-(D1-K)*%
X48515000Y-84500000D03*
%TO.P,D9,2,A*%
%TO.N,Net-(D9-A)*%
X49485000Y-84500000D03*
%TD*%
D11*
%TO.P,R7,1*%
%TO.N,Net-(A1-D7)*%
X78975000Y-111000000D03*
%TO.P,R7,2*%
%TO.N,Net-(D6-A)*%
X79475000Y-111000000D03*
%TD*%
D10*
%TO.P,D4,1,K*%
%TO.N,Net-(D1-K)*%
X48500000Y-104500000D03*
%TO.P,D4,2,A*%
%TO.N,Net-(D4-A)*%
X49470000Y-104500000D03*
%TD*%
D14*
%TO.N,Net-(A1-D10)*%
X79997589Y-117770001D02*
X85945001Y-117770001D01*
X85945001Y-117770001D02*
X86745000Y-118570000D01*
X79000000Y-119000000D02*
X79000000Y-118767590D01*
X79000000Y-118767590D02*
X79997589Y-117770001D01*
%TO.N,Net-(A1-D13)*%
X72267590Y-135500000D02*
X111000000Y-135500000D01*
X56500000Y-119500000D02*
X56500000Y-119732410D01*
X56500000Y-119732410D02*
X72267590Y-135500000D01*
X101985000Y-126485000D02*
X101985000Y-123650000D01*
X111000000Y-135500000D02*
X101985000Y-126485000D01*
%TO.N,Net-(D1-K)*%
X48515000Y-96500000D02*
X48515000Y-77013052D01*
X48530000Y-116485000D02*
X48515000Y-116500000D01*
X48515000Y-77013052D02*
X49148052Y-76380000D01*
X67415000Y-76380000D02*
X86745000Y-95710000D01*
X49148052Y-76380000D02*
X67415000Y-76380000D01*
X48530000Y-73500000D02*
X48530000Y-116485000D01*
%TO.N,Net-(A1-D8)*%
X86255000Y-113000000D02*
X86745000Y-113490000D01*
X79517590Y-113000000D02*
X86255000Y-113000000D01*
X79250000Y-113267590D02*
X79517590Y-113000000D01*
X79250000Y-113500000D02*
X79250000Y-113267590D01*
%TO.N,Net-(A1-D12)*%
X85945001Y-122850001D02*
X86745000Y-123650000D01*
X79917589Y-122850001D02*
X85945001Y-122850001D01*
X79000000Y-123767590D02*
X79917589Y-122850001D01*
X79000000Y-124000000D02*
X79000000Y-123767590D01*
%TO.N,Net-(A1-D7)*%
X78975000Y-110767590D02*
X79242590Y-110500000D01*
X78975000Y-111000000D02*
X78975000Y-110767590D01*
X86295000Y-110500000D02*
X86745000Y-110950000D01*
X79242590Y-110500000D02*
X86295000Y-110500000D01*
%TO.N,Net-(A1-A0)*%
X86505000Y-100550000D02*
X86745000Y-100790000D01*
X79217590Y-100550000D02*
X86505000Y-100550000D01*
X79000000Y-101000000D02*
X79000000Y-100767590D01*
X79000000Y-100767590D02*
X79217590Y-100550000D01*
X101985000Y-116030000D02*
X86745000Y-100790000D01*
%TO.N,Net-(A1-D11)*%
X79000000Y-122000000D02*
X79000000Y-121767590D01*
X79000000Y-121767590D02*
X79657590Y-121110000D01*
X79657590Y-121110000D02*
X86745000Y-121110000D01*
%TO.N,Net-(A1-D5)*%
X79000000Y-105767590D02*
X79217590Y-105550000D01*
X79217590Y-105550000D02*
X86425000Y-105550000D01*
X79000000Y-106000000D02*
X79000000Y-105767590D01*
X86425000Y-105550000D02*
X86745000Y-105870000D01*
%TO.N,Net-(A1-D2)*%
X78975000Y-98500000D02*
X78975000Y-98267590D01*
X79242590Y-98000000D02*
X86495000Y-98000000D01*
X78975000Y-98267590D02*
X79242590Y-98000000D01*
X86495000Y-98000000D02*
X86745000Y-98250000D01*
%TO.N,Net-(A1-D9)*%
X79487590Y-116030000D02*
X86745000Y-116030000D01*
X79250000Y-116267590D02*
X79487590Y-116030000D01*
X79250000Y-116500000D02*
X79250000Y-116267590D01*
%TO.N,Net-(A1-D6)*%
X86335000Y-108000000D02*
X86745000Y-108410000D01*
X79517590Y-108000000D02*
X86335000Y-108000000D01*
X79250000Y-108500000D02*
X79250000Y-108267590D01*
X79250000Y-108267590D02*
X79517590Y-108000000D01*
%TO.N,Net-(A1-D4)*%
X79267590Y-103000000D02*
X86415000Y-103000000D01*
X79000000Y-103267590D02*
X79267590Y-103000000D01*
X79000000Y-103500000D02*
X79000000Y-103267590D01*
X86415000Y-103000000D02*
X86745000Y-103330000D01*
%TO.N,Net-(D1-A)*%
X57000000Y-119267590D02*
X54232410Y-116500000D01*
X54232410Y-116500000D02*
X49485000Y-116500000D01*
X57000000Y-119500000D02*
X57000000Y-119267590D01*
%TO.N,Net-(D2-A)*%
X62798096Y-124500000D02*
X50798096Y-112500000D01*
X79500000Y-124000000D02*
X79500000Y-124232410D01*
X79500000Y-124232410D02*
X79232410Y-124500000D01*
X79232410Y-124500000D02*
X62798096Y-124500000D01*
X50798096Y-112500000D02*
X49500000Y-112500000D01*
%TO.N,Net-(D3-A)*%
X63500000Y-122500000D02*
X49500000Y-108500000D01*
X79232410Y-122500000D02*
X63500000Y-122500000D01*
X79500000Y-122000000D02*
X79500000Y-122232410D01*
X79500000Y-122232410D02*
X79232410Y-122500000D01*
%TO.N,Net-(D4-A)*%
X64420000Y-119450000D02*
X49470000Y-104500000D01*
X79500000Y-119000000D02*
X79500000Y-119232410D01*
X79282410Y-119450000D02*
X64420000Y-119450000D01*
X79500000Y-119232410D02*
X79282410Y-119450000D01*
%TO.N,Net-(D5-A)*%
X66000000Y-117000000D02*
X49500000Y-100500000D01*
X79750000Y-116500000D02*
X79750000Y-116732410D01*
X79482410Y-117000000D02*
X66000000Y-117000000D01*
X79750000Y-116732410D02*
X79482410Y-117000000D01*
%TO.N,Net-(D6-A)*%
X79475000Y-111000000D02*
X79475000Y-111232410D01*
X79475000Y-111232410D02*
X79257410Y-111450000D01*
X79257410Y-111450000D02*
X64435000Y-111450000D01*
X64435000Y-111450000D02*
X49485000Y-96500000D01*
%TO.N,Net-(D7-A)*%
X79750000Y-108500000D02*
X79750000Y-108732410D01*
X79482410Y-109000000D02*
X65970000Y-109000000D01*
X79750000Y-108732410D02*
X79482410Y-109000000D01*
X65970000Y-109000000D02*
X49470000Y-92500000D01*
%TO.N,Net-(D8-A)*%
X79282410Y-106450000D02*
X67435000Y-106450000D01*
X79500000Y-106232410D02*
X79282410Y-106450000D01*
X79500000Y-106000000D02*
X79500000Y-106232410D01*
X67435000Y-106450000D02*
X49485000Y-88500000D01*
%TO.N,Net-(D9-A)*%
X79500000Y-103500000D02*
X79500000Y-103732410D01*
X79500000Y-103732410D02*
X79232410Y-104000000D01*
X79232410Y-104000000D02*
X68985000Y-104000000D01*
X68985000Y-104000000D02*
X49485000Y-84500000D01*
%TO.N,Net-(D10-A)*%
X79500000Y-101232410D02*
X79282410Y-101450000D01*
X79282410Y-101450000D02*
X69920000Y-101450000D01*
X79500000Y-101000000D02*
X79500000Y-101232410D01*
X69920000Y-101450000D02*
X49470000Y-81000000D01*
%TO.N,Net-(D11-A)*%
X71435000Y-98950000D02*
X49485000Y-77000000D01*
X79257410Y-98950000D02*
X71435000Y-98950000D01*
X79475000Y-98732410D02*
X79257410Y-98950000D01*
X79475000Y-98500000D02*
X79475000Y-98732410D01*
%TO.N,Net-(D12-A)*%
X102440635Y-122550000D02*
X111400000Y-131509365D01*
X47500000Y-116441948D02*
X47500000Y-73573052D01*
X81180000Y-114930000D02*
X87200635Y-114930000D01*
X49000000Y-72500000D02*
X49500000Y-73000000D01*
X49500000Y-73000000D02*
X49500000Y-73500000D01*
X48573052Y-72500000D02*
X49000000Y-72500000D01*
X111400000Y-131509365D02*
X111400000Y-135665685D01*
X87200635Y-114930000D02*
X94820635Y-122550000D01*
X94820635Y-122550000D02*
X102440635Y-122550000D01*
X67058052Y-136000000D02*
X47500000Y-116441948D01*
X47500000Y-73573052D02*
X48573052Y-72500000D01*
X111400000Y-135665685D02*
X111065685Y-136000000D01*
X111065685Y-136000000D02*
X67058052Y-136000000D01*
X79750000Y-113500000D02*
X81180000Y-114930000D01*
%TD*%
M02*
